<?xml version="1.0" standalone="no"?>
<!DOCTYPE svg PUBLIC "-//W3C//DTD SVG 20010904//EN"
 "http://www.w3.org/TR/2001/REC-SVG-20010904/DTD/svg10.dtd">
<svg version="1.0" xmlns="http://www.w3.org/2000/svg"
 width="250.000000pt" height="250.000000pt" viewBox="0 0 250.000000 250.000000"
 preserveAspectRatio="xMidYMid meet">

<g transform="translate(0.000000,250.000000) scale(0.100000,-0.100000)"
fill="#000000" stroke="none">
<path d="M1115 2494 c-87 -13 -233 -48 -293 -70 -236 -89 -447 -252 -593 -456
-53 -75 -135 -236 -164 -323 -121 -363 -65 -768 152 -1094 106 -159 298 -328
471 -415 343 -173 772 -173 1114 0 433 220 707 685 684 1164 -26 573 -425
1047 -983 1170 -95 21 -315 35 -388 24z m420 -79 c211 -55 378 -150 539 -305
163 -157 271 -342 333 -568 24 -88 26 -115 27 -282 1 -172 -1 -192 -27 -293
-62 -236 -165 -415 -334 -578 -170 -164 -363 -266 -608 -320 -79 -18 -361 -18
-440 0 -245 54 -438 156 -608 320 -169 163 -272 342 -334 578 -26 101 -28 121
-27 293 1 169 3 194 28 285 60 222 169 408 332 565 153 148 309 239 501 295
132 38 192 44 363 40 128 -3 173 -8 255 -30z"/>
<path d="M1147 2393 c-13 -13 -7 -61 11 -84 36 -46 37 -88 3 -90 -10 0 -12 -2
-3 -6 20 -8 42 17 42 46 0 15 -12 43 -26 62 -15 20 -24 43 -21 57 5 24 4 26
-6 15z"/>
<path d="M1222 2310 c2 -49 6 -90 11 -90 4 0 7 41 7 90 0 58 -4 90 -11 90 -7
0 -10 -30 -7 -90z"/>
<path d="M1278 2393 c8 -3 12 -31 12 -90 0 -105 10 -102 19 4 4 54 10 77 19
76 6 -2 12 2 12 7 0 6 -17 10 -37 9 -21 0 -32 -3 -25 -6z"/>
<path d="M1368 2395 c-3 -3 -1 -25 4 -48 5 -23 7 -63 3 -89 -3 -27 -2 -48 3
-48 16 0 22 103 9 148 -7 23 -16 40 -19 37z"/>
<path d="M1039 2385 c-8 -7 23 -185 32 -185 4 0 5 17 3 38 l-6 37 32 -35 c34
-38 34 -37 4 27 -10 24 -24 43 -30 43 -15 0 -25 52 -13 64 5 6 15 -4 24 -25
l15 -34 -2 35 c-3 29 -7 35 -28 38 -14 2 -28 0 -31 -3z"/>
<path d="M944 2356 c-5 -12 29 -162 39 -172 2 -2 15 0 28 5 23 9 23 10 3 10
-12 1 -25 8 -28 17 -10 27 -7 64 7 65 6 0 2 4 -10 9 -29 12 -33 66 -5 73 12 4
11 5 -6 6 -12 0 -25 -5 -28 -13z"/>
<path d="M1541 2337 c-19 -24 -41 -85 -41 -116 0 -44 15 -46 16 -2 1 20 11 58
22 84 22 49 22 57 3 34z"/>
<path d="M1594 2301 c0 -25 -9 -61 -18 -79 -10 -19 -15 -36 -12 -39 10 -11 46
78 46 116 0 56 -15 59 -16 2z"/>
<path d="M830 2326 c0 -7 91 -166 96 -166 11 0 2 39 -15 58 -10 12 -29 42 -42
67 -20 37 -39 58 -39 41z"/>
<path d="M1632 2239 c-34 -84 -37 -121 -5 -53 14 28 24 38 38 36 18 -2 18 -1
3 8 -25 15 -4 74 23 67 11 -3 19 -1 19 4 0 5 -4 9 -9 9 -5 0 -15 2 -23 5 -9 4
-24 -21 -46 -76z"/>
<path d="M790 2306 c0 -11 64 -152 72 -161 13 -12 9 1 -30 97 -15 37 -30 68
-34 68 -5 0 -8 -2 -8 -4z"/>
<path d="M686 2252 c-3 -5 2 -16 12 -25 85 -78 123 -109 128 -104 7 7 -14 47
-25 47 -5 0 -31 20 -59 45 -28 25 -53 42 -56 37z"/>
<path d="M1804 2242 c5 -15 -5 -41 -34 -88 -22 -37 -38 -70 -34 -73 4 -3 8 -1
10 4 3 6 22 39 44 73 28 44 45 62 55 58 27 -10 16 9 -16 28 -31 18 -31 18 -25
-2z"/>
<path d="M1833 2127 c-53 -74 -63 -108 -14 -48 19 23 33 32 45 28 22 -8 20
-22 -6 -57 -12 -16 -19 -32 -16 -35 5 -5 108 129 108 140 0 14 -18 2 -30 -20
-14 -26 -44 -33 -56 -14 -3 6 3 24 15 40 22 30 26 39 14 38 -5 0 -31 -32 -60
-72z"/>
<path d="M580 2184 c0 -12 90 -132 102 -136 16 -6 38 1 38 12 0 4 -9 6 -19 3
-15 -4 -29 9 -63 61 -38 58 -58 79 -58 60z"/>
<path d="M1092 2149 c-345 -61 -624 -318 -724 -665 -19 -67 -23 -103 -23 -234
0 -131 4 -167 23 -233 91 -317 319 -546 639 -643 79 -24 104 -27 238 -27 134
0 159 3 238 26 225 69 400 199 525 390 163 250 187 587 62 863 -61 136 -180
279 -305 370 -66 48 -193 108 -285 134 -86 25 -300 35 -388 19z m212 -201 l47
-147 42 -12 c106 -28 229 -113 292 -200 21 -30 41 -56 43 -59 2 -3 78 -7 170
-10 l166 -5 -132 -97 -132 -98 0 -62 c-1 -124 -47 -266 -114 -345 -14 -17 -26
-38 -26 -47 0 -8 20 -79 45 -156 25 -77 45 -143 45 -146 0 -12 -30 6 -145 90
-64 47 -121 86 -126 86 -6 0 -38 -9 -72 -21 -87 -30 -237 -30 -324 0 -34 12
-66 21 -71 21 -4 0 -66 -42 -137 -94 -72 -52 -131 -91 -133 -87 -1 4 18 71 43
148 25 77 45 148 45 158 0 9 -12 31 -26 48 -33 39 -79 130 -94 187 -7 25 -15
85 -19 134 l-6 90 -115 83 c-169 123 -171 113 21 113 l165 0 42 60 c67 94 167
165 290 205 l52 17 46 147 c26 80 49 150 51 154 9 16 19 -7 67 -155z"/>
<path d="M1049 1746 c-92 -37 -137 -70 -211 -154 -50 -56 -50 -72 3 -72 36 0
49 7 102 57 34 31 81 65 105 75 43 19 72 61 72 103 0 19 -4 19 -71 -9z"/>
<path d="M1375 1734 c9 -51 9 -50 66 -80 28 -14 77 -49 110 -79 51 -48 64 -55
99 -55 29 0 40 4 40 15 0 15 -50 75 -105 127 -29 28 -147 90 -194 103 -23 7
-23 6 -16 -31z"/>
<path d="M1025 1614 c-48 -32 -95 -75 -95 -86 0 -5 26 -8 57 -6 63 3 72 13 88
86 8 39 1 40 -50 6z"/>
<path d="M1414 1609 c13 -67 28 -84 75 -87 67 -5 79 3 51 33 -25 26 -111 85
-125 85 -4 0 -5 -14 -1 -31z"/>
<path d="M714 1214 c4 -42 17 -104 30 -139 27 -75 84 -167 100 -162 6 2 15 22
20 44 7 35 4 49 -18 95 -15 30 -32 83 -38 119 -9 51 -17 69 -42 91 -52 46 -60
39 -52 -48z"/>
<path d="M1723 1263 c-24 -23 -33 -41 -41 -92 -7 -36 -23 -88 -37 -116 -14
-29 -25 -59 -25 -67 0 -23 21 -78 30 -78 14 0 72 100 96 165 13 35 26 97 30
139 8 87 -1 95 -53 49z"/>
<path d="M826 1183 c8 -36 42 -134 48 -140 11 -11 24 9 36 53 l14 48 -39 33
c-48 41 -68 43 -59 6z"/>
<path d="M1607 1182 c-34 -24 -37 -30 -32 -61 9 -46 23 -81 34 -81 9 0 44 91
55 143 8 35 -7 35 -57 -1z"/>
<path d="M1193 878 c-23 -17 -40 -35 -37 -40 7 -11 171 -10 178 1 6 10 -71 71
-88 71 -6 -1 -30 -15 -53 -32z"/>
<path d="M1077 794 c-45 -33 -39 -41 40 -60 74 -18 182 -18 256 0 81 19 87 29
40 60 -37 25 -42 25 -98 15 -53 -10 -121 -7 -180 7 -12 3 -35 -6 -58 -22z"/>
<path d="M1949 2083 c-86 -94 -84 -91 -64 -113 10 -11 23 -20 29 -20 6 0 3 7
-6 14 -24 18 -23 28 5 55 16 15 30 19 43 14 17 -6 17 -5 5 10 -20 25 13 61 49
52 24 -6 24 -6 5 9 -27 21 -26 21 -66 -21z"/>
<path d="M464 2095 c-15 -39 32 -113 86 -135 27 -11 33 -11 48 5 16 16 16 17
-4 7 -16 -8 -27 -7 -49 8 -60 39 -96 110 -62 123 9 4 9 6 -1 6 -7 1 -15 -6
-18 -14z"/>
<path d="M410 2034 c0 -15 119 -129 126 -121 4 4 5 8 3 10 -3 1 -33 29 -67 62
-34 33 -62 55 -62 49z"/>
<path d="M2065 1972 c-17 -15 -46 -40 -64 -55 -18 -15 -31 -30 -28 -33 2 -3
32 18 65 45 34 28 66 51 72 51 22 0 8 -31 -22 -50 -21 -13 -27 -20 -16 -20 9
0 30 11 45 24 23 20 26 28 17 43 -17 27 -36 26 -69 -5z"/>
<path d="M330 1943 c0 -16 24 -33 45 -33 12 0 47 -9 78 -19 32 -11 57 -17 57
-12 0 14 -24 31 -46 31 -12 0 -37 6 -55 14 -55 22 -79 28 -79 19z"/>
<path d="M2093 1878 c-74 -53 -93 -78 -28 -38 28 17 39 19 50 10 19 -15 11
-32 -25 -54 -17 -9 -30 -22 -30 -27 0 -5 34 13 76 42 42 28 73 53 71 56 -3 2
-17 -3 -31 -12 -28 -19 -56 -14 -56 9 0 8 14 23 30 33 28 16 40 34 23 33 -5
-1 -41 -24 -80 -52z"/>
<path d="M319 1871 c23 -19 32 -33 28 -45 -8 -20 -21 -20 -53 0 -13 9 -27 14
-30 12 -5 -6 134 -98 148 -98 15 0 8 8 -27 30 -19 12 -35 28 -35 36 0 25 28
27 60 4 17 -12 34 -19 37 -16 8 8 11 5 -75 60 -82 52 -104 59 -53 17z"/>
<path d="M2157 1783 c-43 -25 -76 -48 -73 -50 7 -7 156 77 156 88 0 12 6 15
-83 -38z"/>
<path d="M2178 1739 c-43 -21 -78 -43 -78 -47 0 -5 7 -17 15 -28 14 -18 15
-18 12 5 -2 21 8 29 70 60 40 20 73 39 73 44 0 12 -12 8 -92 -34z"/>
<path d="M217 1753 c10 -29 25 -43 66 -64 43 -23 98 -22 105 1 4 13 3 13 -11
2 -23 -19 -92 4 -133 45 -20 19 -31 26 -27 16z"/>
<path d="M2280 1690 c-8 -6 -46 -22 -85 -37 -38 -14 -64 -28 -57 -31 13 -4
138 44 156 60 14 12 3 18 -14 8z"/>
<path d="M177 1677 c-4 -10 -7 -23 -7 -27 0 -10 62 -39 125 -60 34 -11 40 -11
52 6 16 21 17 34 3 34 -5 0 -10 -7 -10 -15 0 -17 -18 -19 -55 -5 -18 7 -25 15
-21 25 3 8 1 15 -3 15 -5 0 -11 -6 -13 -12 -7 -21 -56 7 -60 34 -3 20 -4 21
-11 5z"/>
<path d="M2222 1613 c-95 -33 -84 -44 13 -13 41 13 78 21 81 17 13 -13 -19
-37 -49 -37 -23 0 -28 -3 -20 -11 8 -8 21 -8 47 1 42 13 50 23 41 50 -8 25
-23 24 -113 -7z"/>
<path d="M146 1588 c-3 -13 -6 -30 -6 -38 0 -12 2 -12 9 -2 7 11 22 10 86 -8
42 -12 79 -19 83 -16 3 3 3 6 1 7 -2 0 -38 10 -79 22 -57 17 -75 26 -74 40 2
25 -13 21 -20 -5z"/>
<path d="M2245 1525 c-93 -27 -75 -33 26 -8 38 9 72 13 77 9 12 -13 -32 -37
-60 -33 -15 2 -25 0 -22 -5 7 -11 65 -10 82 1 18 11 11 55 -8 58 -8 1 -51 -9
-95 -22z"/>
<path d="M184 1469 c-3 -5 -18 -9 -34 -9 -16 0 -31 -3 -33 -7 -3 -5 37 -8 88
-8 51 0 92 1 91 3 -10 9 -108 28 -112 21z"/>
<path d="M2345 1455 c-5 -2 -43 -9 -83 -15 -39 -7 -70 -15 -68 -19 6 -10 176
20 176 31 0 8 -7 9 -25 3z"/>
<path d="M277 1379 c-4 -14 -11 -20 -20 -16 -8 3 -48 8 -88 11 -94 7 -51 -9
50 -19 l71 -7 0 26 c0 32 -6 34 -13 5z"/>
<path d="M2278 1361 c-38 -20 -68 -39 -68 -43 0 -12 38 -9 45 3 4 6 34 22 66
36 57 25 77 44 42 42 -10 -1 -48 -18 -85 -38z"/>
<path d="M123 1318 c-12 -6 -24 -17 -27 -24 -4 -11 1 -10 19 2 19 12 42 15 92
12 61 -4 65 -3 38 8 -36 16 -92 16 -122 2z"/>
<path d="M2211 1248 c1 -30 2 -31 8 -8 8 29 50 39 73 17 11 -12 16 -12 26 0
20 20 52 16 62 -9 8 -22 9 -22 9 5 l1 27 -90 0 -90 0 1 -32z"/>
<path d="M121 1245 c13 -13 135 -13 148 0 7 7 -18 10 -74 10 -55 0 -81 -3 -74
-10z"/>
<path d="M118 1199 c-10 -5 -18 -22 -18 -36 0 -26 0 -26 61 -19 34 3 78 6 97
6 19 0 32 3 29 6 -4 4 -45 6 -93 5 -67 -2 -85 1 -82 11 3 8 21 13 46 13 46 0
55 9 20 19 -31 8 -40 7 -60 -5z"/>
<path d="M2203 1184 c-14 -38 58 -57 107 -29 35 20 70 19 71 -2 0 -12 2 -13 6
-5 7 18 -15 42 -39 42 -10 0 -37 -9 -59 -20 -47 -24 -84 -19 -76 11 6 23 -1
25 -10 3z"/>
<path d="M204 1034 c2 -36 12 -77 25 -100 l21 -39 -7 44 c-3 25 -14 70 -24
100 l-19 56 4 -61z"/>
<path d="M2268 1035 c-9 -33 -19 -78 -22 -100 l-5 -40 19 40 c21 43 34 111 28
141 -2 11 -11 -7 -20 -41z"/>
<path d="M280 898 c15 -63 45 -148 53 -148 15 0 6 52 -19 115 -28 69 -47 87
-34 33z"/>
<path d="M2181 880 c-25 -59 -39 -130 -25 -130 12 0 57 143 52 167 -2 12 -11
-1 -27 -37z"/>
<path d="M210 873 c1 -28 35 -98 61 -121 30 -29 36 -20 11 15 -10 15 -29 49
-40 76 -22 49 -32 59 -32 30z"/>
<path d="M2240 829 c-18 -35 -39 -72 -48 -81 -8 -10 -10 -18 -5 -18 20 0 72
70 83 111 17 63 5 58 -30 -12z"/>
<path d="M320 729 c0 -9 7 -22 15 -29 19 -16 19 0 0 26 -12 16 -14 16 -15 3z"/>
<path d="M2151 722 c-7 -13 -11 -26 -8 -28 8 -8 29 25 25 38 -3 8 -9 4 -17
-10z"/>
<path d="M390 717 c0 -19 69 -151 76 -144 2 2 -1 19 -6 38 -13 44 -70 131 -70
106z"/>
<path d="M2073 697 c-43 -64 -77 -182 -48 -171 7 3 11 14 8 24 -3 11 10 47 32
85 39 71 46 118 8 62z"/>
<path d="M290 677 c0 -35 94 -137 127 -137 12 0 6 9 -18 33 -19 17 -51 50 -72
72 -20 22 -37 36 -37 32z"/>
<path d="M2128 610 c-66 -70 -69 -96 -4 -39 35 30 82 96 74 104 -2 2 -34 -27
-70 -65z"/>
<path d="M457 547 c-3 -9 1 -18 9 -21 16 -6 18 2 5 22 -7 11 -9 11 -14 -1z"/>
<path d="M520 554 c0 -13 20 -41 69 -93 23 -24 41 -49 41 -54 0 -16 -61 2 -96
28 -40 31 -87 50 -82 34 9 -27 87 -71 139 -78 30 -4 60 -10 67 -15 18 -11 15
9 -4 25 -8 7 -24 29 -34 48 -19 38 -100 122 -100 105z"/>
<path d="M1916 510 c-25 -27 -46 -54 -46 -59 0 -6 -15 -27 -32 -48 -25 -28
-28 -35 -13 -29 11 5 44 12 74 17 52 7 130 51 139 78 5 16 -42 -3 -82 -34 -36
-27 -96 -44 -96 -27 0 6 22 34 48 64 42 45 69 88 58 88 -2 0 -24 -22 -50 -50z"/>
<path d="M796 383 c-12 -12 -6 -22 9 -17 23 9 18 -10 -20 -86 -27 -54 -32 -70
-20 -70 8 0 15 4 15 9 0 5 14 40 31 78 28 64 31 67 45 49 11 -15 14 -16 14 -5
0 16 -64 52 -74 42z"/>
<path d="M1653 373 c-7 -2 -13 -12 -13 -21 0 -14 1 -14 13 1 17 23 35 9 46
-38 l9 -40 1 33 c2 56 -19 80 -56 65z"/>
<path d="M1557 323 c-5 -14 -3 -33 5 -50 11 -22 20 -28 42 -26 28 2 28 1 23
-39 -4 -31 -3 -38 6 -29 26 26 -2 161 -34 161 -5 0 -3 -10 5 -22 18 -26 21
-54 6 -63 -18 -11 -39 15 -42 53 -3 32 -4 34 -11 15z"/>
<path d="M910 310 c-7 -14 -7 -20 0 -20 13 0 13 -30 0 -50 -9 -13 -12 -13 -23
1 -11 15 -15 13 -35 -17 -25 -38 -26 -44 -12 -44 6 0 10 6 10 14 0 7 7 19 15
26 22 18 48 -6 41 -36 -4 -13 -2 -25 3 -28 5 -4 12 24 16 61 3 38 8 78 11 91
6 27 -12 29 -26 2z"/>
<path d="M1510 292 c14 -19 20 -37 16 -48 -3 -9 -1 -23 5 -31 9 -10 9 -20 0
-39 -15 -34 -13 -43 4 -20 29 38 11 137 -27 157 -18 10 -18 9 2 -19z"/>
<path d="M992 288 c-38 -41 -46 -148 -11 -148 8 0 8 4 -1 15 -14 17 -6 74 16
117 15 29 39 37 47 16 2 -7 8 -10 12 -6 11 10 -4 28 -24 28 -10 0 -27 -10 -39
-22z"/>
<path d="M1468 290 c-8 -28 10 -71 32 -78 12 -4 12 -1 -2 14 -9 10 -18 35 -20
54 -3 32 -4 33 -10 10z"/>
<path d="M1087 293 c-3 -4 -8 -42 -12 -85 -7 -70 -6 -77 13 -87 24 -13 48 -6
57 17 4 9 8 49 10 87 l4 70 -13 -78 c-14 -87 -28 -110 -51 -86 -14 13 -14 26
-4 88 10 67 9 95 -4 74z"/>
<path d="M1195 278 c-10 -31 -10 -168 0 -168 6 0 12 36 13 90 3 82 -2 110 -13
78z"/>
<path d="M1290 275 c7 -9 15 -13 17 -11 7 7 -7 26 -19 26 -6 0 -6 -6 2 -15z"/>
<path d="M1395 280 c-4 -7 -2 -16 4 -20 7 -4 13 -35 14 -73 2 -58 5 -67 21
-67 13 0 16 4 11 18 -4 9 -13 45 -19 79 -12 66 -20 81 -31 63z"/>
<path d="M1249 259 c-15 -29 -15 -115 1 -134 21 -25 30 -17 14 13 -16 31 -18
64 -5 110 11 37 7 42 -10 11z"/>
<path d="M1690 232 c0 -18 2 -32 5 -32 14 0 65 32 65 40 0 14 -14 12 -29 -2
-10 -11 -15 -9 -27 6 -13 19 -14 18 -14 -12z"/>
<path d="M1018 173 c-5 -36 -3 -51 6 -42 10 10 17 79 8 79 -5 0 -12 -17 -14
-37z"/>
<path d="M1306 165 c4 -15 1 -32 -6 -40 -10 -12 -9 -15 4 -15 12 0 16 10 16
40 0 22 -5 40 -10 40 -6 0 -8 -11 -4 -25z"/>
</g>
</svg>
