<?xml version="1.0" standalone="no"?>
<!DOCTYPE svg PUBLIC "-//W3C//DTD SVG 20010904//EN"
 "http://www.w3.org/TR/2001/REC-SVG-20010904/DTD/svg10.dtd">
<svg version="1.0" xmlns="http://www.w3.org/2000/svg"
 width="1600.000000pt" height="1600.000000pt" viewBox="0 0 1600.000000 1600.000000"
 preserveAspectRatio="xMidYMid meet">

<g transform="translate(0.000000,1600.000000) scale(0.100000,-0.100000)"
fill="#000000" stroke="none">
<path d="M7577 15017 c-3 -9 -42 -18 -114 -26 -243 -29 -646 -118 -858 -191
-49 -17 -115 -39 -145 -49 -30 -10 -89 -33 -130 -50 -41 -18 -100 -41 -130
-53 -61 -23 -435 -212 -490 -247 -19 -12 -87 -55 -151 -95 -780 -491 -1416
-1239 -1778 -2095 -167 -392 -265 -752 -329 -1211 -11 -74 -25 -136 -31 -138
-8 -3 -11 -127 -11 -444 0 -363 2 -443 14 -452 8 -7 20 -60 30 -141 74 -571
279 -1187 554 -1667 40 -70 157 -254 205 -323 111 -159 121 -175 110 -186 -8
-8 -20 -6 -41 5 -66 34 -83 11 -29 -40 37 -36 166 -140 251 -204 91 -68 296
-270 296 -291 0 -15 -9 -18 -52 -21 -45 -3 -53 -6 -53 -22 0 -13 10 -22 30
-28 109 -33 317 -143 422 -223 306 -235 608 -427 848 -540 182 -85 242 -112
365 -160 361 -141 699 -225 1105 -275 88 -11 173 -27 188 -35 24 -12 88 -15
377 -15 256 0 349 3 352 12 3 7 73 20 179 34 486 62 856 160 1274 339 377 161
690 349 1075 645 100 77 303 188 403 220 53 17 47 43 -12 50 -25 3 -46 11 -49
18 -6 20 216 241 334 332 49 38 172 140 203 169 26 24 31 35 23 43 -9 9 -21 9
-48 -1 -19 -7 -38 -10 -42 -7 -3 3 21 45 54 92 244 351 390 620 533 979 143
359 247 762 292 1138 6 55 18 104 25 112 21 20 21 870 0 890 -7 8 -19 57 -25
112 -61 506 -210 1001 -446 1478 -449 910 -1191 1649 -2107 2099 -193 94 -256
121 -513 215 -249 92 -664 189 -948 222 -72 8 -111 17 -114 26 -4 11 -86 13
-448 13 -362 0 -444 -2 -448 -13z m998 -201 c210 -27 380 -60 555 -105 113
-29 341 -99 390 -120 14 -6 67 -26 118 -46 415 -159 846 -413 1211 -714 159
-131 457 -429 587 -586 486 -588 808 -1269 947 -2005 59 -310 71 -447 71 -820
0 -373 -12 -509 -70 -820 -274 -1442 -1258 -2670 -2604 -3250 -570 -245 -1129
-360 -1755 -360 -371 0 -683 36 -1025 117 -1202 285 -2245 1077 -2849 2161
-287 516 -442 987 -529 1607 -24 176 -26 215 -26 545 0 330 2 369 26 545 87
622 260 1139 551 1645 498 868 1309 1573 2212 1924 66 26 131 52 145 57 54 23
281 92 405 124 180 46 369 80 570 104 235 29 243 29 580 26 251 -3 331 -7 490
-29z"/>
<path d="M7674 14662 c-35 -28 -54 -76 -54 -139 0 -72 28 -134 100 -223 63
-78 67 -85 79 -142 13 -56 4 -111 -21 -138 -21 -22 -29 -22 -99 -5 -19 5 -28
2 -32 -10 -5 -12 4 -21 36 -35 58 -27 81 -25 120 10 40 35 57 85 57 171 0 78
-21 128 -89 213 -77 97 -91 125 -91 182 0 41 5 55 25 74 22 21 28 22 51 11 40
-18 57 4 25 30 -29 24 -79 24 -107 1z"/>
<path d="M8118 14670 c-10 -6 -18 -23 -18 -37 0 -24 2 -25 39 -19 62 10 74 -9
67 -103 -3 -42 -8 -137 -11 -211 -4 -74 -11 -173 -15 -219 -10 -86 -4 -111 26
-111 31 0 41 28 43 123 4 230 21 489 32 504 12 13 37 14 77 2 8 -2 19 4 25 14
10 15 8 22 -12 38 -18 15 -39 19 -95 19 -39 0 -87 3 -106 5 -19 3 -43 1 -52
-5z"/>
<path d="M7945 14657 c-3 -7 -2 -161 2 -342 l8 -330 28 -3 c17 -2 27 1 28 10
3 58 -4 653 -8 664 -6 17 -52 18 -58 1z"/>
<path d="M8464 14637 c-4 -13 5 -68 51 -284 13 -65 13 -84 0 -185 -9 -62 -20
-130 -26 -150 -7 -26 -6 -44 1 -58 11 -20 44 -27 54 -12 2 4 14 75 25 157 11
83 27 170 36 194 20 59 19 65 -13 98 -23 23 -31 43 -41 108 -20 132 -23 140
-54 143 -17 2 -29 -2 -33 -11z"/>
<path d="M7340 14625 c-19 -7 -45 -14 -56 -14 -47 -2 -49 -21 -21 -179 14 -81
35 -210 47 -287 32 -219 32 -220 56 -223 33 -5 50 23 37 61 -6 18 -17 65 -23
105 -9 57 -9 76 0 87 18 21 30 8 85 -85 57 -97 107 -145 135 -130 28 15 25 36
-9 68 -43 40 -151 228 -151 261 0 16 7 34 16 42 74 61 47 258 -41 295 -19 8
-36 14 -37 13 -2 0 -19 -7 -38 -14z m58 -68 c31 -32 47 -119 36 -182 -8 -41
-14 -51 -36 -59 -42 -15 -53 3 -73 124 -14 88 -15 113 -5 125 18 22 53 18 78
-8z"/>
<path d="M8713 14598 c-16 -20 -36 -89 -28 -96 4 -4 10 -1 12 6 3 7 16 26 29
41 13 16 24 36 24 45 0 19 -23 21 -37 4z"/>
<path d="M6965 14544 c-81 -25 -99 -38 -89 -64 11 -29 113 -428 139 -543 9
-42 24 -81 32 -85 21 -13 182 30 199 52 15 22 8 46 -15 46 -9 0 -29 -9 -46
-20 -70 -46 -100 -17 -134 129 -28 117 -25 129 35 146 27 7 40 17 42 32 4 27
-18 34 -63 21 -31 -10 -38 -9 -54 8 -25 26 -62 171 -51 200 12 31 44 46 84 39
37 -7 51 4 41 34 -9 29 -34 30 -120 5z"/>
<path d="M9190 14481 c-63 -39 -103 -88 -145 -175 -67 -141 -94 -308 -65 -404
17 -55 71 -102 117 -102 135 0 297 275 296 500 0 93 -20 140 -75 180 -51 37
-71 37 -128 1z m123 -55 c79 -153 -108 -639 -228 -592 -8 3 -24 20 -36 38 -18
29 -20 45 -16 133 7 155 72 336 154 426 31 34 41 40 71 37 29 -3 38 -9 55 -42z"/>
<path d="M6736 14461 c-9 -14 2 -51 15 -51 5 0 12 7 16 16 7 19 -21 51 -31 35z"/>
<path d="M6497 14393 c-12 -11 -8 -46 7 -62 12 -14 117 -200 255 -450 53 -96
72 -114 97 -89 14 14 15 23 4 70 -17 72 -34 102 -75 135 -25 20 -63 79 -127
198 -50 94 -98 178 -106 188 -15 17 -43 23 -55 10z"/>
<path d="M9582 14358 c-10 -13 -24 -46 -107 -248 -59 -145 -123 -289 -143
-322 -20 -35 -7 -63 29 -63 18 0 26 9 38 40 8 22 27 72 43 110 60 146 74 160
127 129 35 -21 64 -12 59 18 -2 14 -13 24 -31 29 -35 9 -57 27 -57 46 0 25 70
177 87 191 26 19 50 14 87 -19 38 -33 56 -31 56 6 0 27 -13 36 -100 72 -63 26
-74 28 -88 11z"/>
<path d="M6347 14329 c-23 -13 -22 -31 9 -92 15 -29 39 -81 54 -117 77 -185
173 -406 182 -417 14 -18 47 -16 54 2 4 8 -16 66 -44 128 -70 157 -189 438
-197 465 -8 29 -35 43 -58 31z"/>
<path d="M5947 14133 c-14 -13 -6 -38 31 -100 20 -34 46 -65 57 -69 54 -16 92
-45 243 -184 117 -107 170 -150 188 -150 64 0 -2 132 -88 176 -32 16 -119 88
-220 180 -152 141 -191 168 -211 147z"/>
<path d="M10062 14128 c-18 -18 -15 -48 6 -48 23 0 62 -28 62 -44 0 -13 -234
-410 -288 -489 -28 -42 -23 -72 13 -72 23 0 26 5 190 282 86 146 145 235 157
239 14 4 28 -2 47 -20 32 -31 61 -26 61 10 0 24 -22 41 -158 122 -58 35 -72
38 -90 20z"/>
<path d="M10372 13878 c-21 -29 -94 -129 -162 -223 -68 -93 -142 -192 -164
-219 -31 -38 -37 -52 -29 -65 23 -37 49 -25 97 46 84 125 135 183 159 183 36
0 107 -59 107 -90 0 -23 -54 -103 -146 -217 -36 -44 -37 -68 -1 -79 15 -5 25
-1 35 12 82 116 205 283 284 389 54 72 98 138 98 147 0 17 -33 33 -49 24 -5
-3 -41 -51 -81 -106 -61 -85 -75 -100 -99 -100 -33 0 -111 63 -111 90 0 10 28
55 63 100 91 120 94 125 78 144 -22 26 -38 19 -79 -36z"/>
<path d="M5559 13884 c-15 -19 -27 3 130 -230 140 -208 189 -266 244 -293 52
-25 69 -26 113 -5 38 18 64 58 64 99 0 33 -5 32 -51 -10 -22 -19 -48 -35 -60
-35 -28 0 -69 23 -100 57 -31 32 -248 352 -273 401 -18 35 -45 42 -67 16z"/>
<path d="M7795 13774 c-107 -9 -366 -47 -475 -70 -997 -215 -1845 -872 -2301
-1784 -173 -345 -273 -670 -330 -1075 -33 -229 -33 -619 -1 -850 84 -602 289
-1107 642 -1580 560 -752 1389 -1228 2328 -1335 1176 -134 2349 377 3062 1335
353 473 558 978 642 1580 32 231 32 621 -1 850 -43 304 -111 564 -214 820
-423 1048 -1339 1815 -2442 2044 -214 45 -382 62 -625 66 -129 1 -257 1 -285
-1z m239 -180 c9 -3 23 -32 32 -63 9 -31 33 -108 54 -171 21 -63 82 -250 135
-415 53 -165 111 -341 127 -392 35 -105 45 -116 142 -138 109 -25 265 -83 401
-149 341 -166 621 -414 834 -741 29 -44 59 -84 67 -88 7 -4 281 -8 607 -7 520
0 595 -1 612 -15 20 -15 19 -16 -15 -45 -19 -17 -197 -147 -395 -291 -519
-376 -520 -377 -541 -400 -18 -20 -19 -35 -16 -208 4 -209 -8 -347 -43 -501
-74 -323 -218 -614 -426 -863 -67 -79 -72 -101 -39 -189 10 -29 53 -161 95
-293 42 -132 85 -265 95 -295 102 -303 152 -472 141 -483 -15 -15 -2 -24 -339
222 -155 113 -296 215 -312 226 -60 41 -276 200 -303 222 -32 26 -75 30 -115
9 -59 -30 -243 -89 -367 -117 -397 -88 -875 -46 -1223 108 -89 39 -46 62 -533
-292 -68 -49 -216 -156 -328 -237 -111 -82 -209 -148 -216 -148 -28 0 -25 22
21 162 26 79 63 195 84 258 198 605 240 743 235 761 -4 11 -25 41 -47 67 -202
233 -354 530 -433 848 -43 171 -59 342 -53 550 5 159 4 167 -16 189 -11 13
-97 78 -191 146 -93 67 -269 195 -390 282 -121 88 -242 176 -270 195 -66 47
-115 93 -115 109 0 11 113 13 600 13 433 0 606 3 624 12 15 6 46 44 71 84 106
170 285 371 445 501 223 180 545 341 800 399 37 8 76 23 87 33 11 11 43 93 77
197 32 99 75 231 96 294 21 63 72 223 115 355 74 233 100 305 109 305 2 0 11
-3 20 -6z"/>
<path d="M7398 12286 c-392 -133 -713 -367 -966 -704 -77 -104 -93 -139 -71
-153 22 -14 320 -10 345 4 12 7 51 46 87 87 80 92 199 196 315 274 82 55 294
166 318 166 33 0 65 57 110 196 25 79 43 151 40 159 -8 23 -40 18 -178 -29z"/>
<path d="M8470 12308 c0 -29 79 -277 98 -305 7 -12 33 -30 55 -40 111 -47 281
-140 367 -201 54 -38 151 -124 225 -199 l131 -132 167 -2 c181 -2 199 2 180
43 -26 55 -176 242 -273 338 -221 222 -479 380 -779 479 -144 48 -171 51 -171
19z"/>
<path d="M8633 11853 c-7 -3 -13 -12 -13 -21 1 -35 119 -365 136 -382 17 -17
41 -19 220 -21 192 -2 224 1 224 22 0 15 -79 96 -160 164 -145 120 -369 251
-407 238z"/>
<path d="M7287 11802 c-123 -67 -257 -164 -355 -258 -125 -120 -125 -119 130
-119 185 0 208 2 226 18 23 21 147 381 137 397 -12 20 -52 9 -138 -38z"/>
<path d="M9937 10572 c-55 -36 -225 -163 -237 -177 -7 -8 -16 -50 -21 -92 -32
-296 -115 -549 -249 -759 -16 -26 -30 -59 -30 -72 0 -38 89 -309 107 -324 13
-11 21 -7 50 27 61 70 167 236 230 361 133 260 212 592 213 890 0 150 -12 179
-63 146z"/>
<path d="M6059 10553 c-18 -45 -3 -317 25 -478 55 -312 195 -625 393 -880 61
-79 70 -73 125 85 57 165 59 199 16 266 -53 84 -136 264 -173 379 -23 73 -43
162 -57 265 -11 85 -25 167 -30 181 -5 15 -31 42 -56 60 -26 18 -82 59 -126
91 -43 32 -85 58 -92 58 -8 0 -19 -12 -25 -27z"/>
<path d="M6470 10270 c-13 -25 28 -235 70 -357 46 -132 120 -282 143 -289 21
-7 47 17 47 43 0 7 23 81 50 164 28 83 50 161 50 173 0 34 -24 60 -118 128
-48 34 -115 84 -150 110 -35 27 -67 48 -72 48 -5 0 -14 -9 -20 -20z"/>
<path d="M9395 10177 c-82 -61 -156 -124 -164 -138 -13 -23 -10 -38 37 -185
28 -87 54 -171 58 -186 7 -33 26 -50 46 -43 15 6 91 157 128 255 43 115 96
363 84 394 -3 9 -14 16 -23 16 -9 0 -83 -51 -166 -113z"/>
<path d="M7855 9057 c-78 -56 -151 -109 -165 -118 -32 -21 -21 -45 27 -59 83
-23 299 -34 441 -23 158 14 217 29 217 57 0 12 -51 55 -158 132 -123 89 -166
114 -190 114 -24 0 -66 -25 -172 -103z"/>
<path d="M7413 8738 c-127 -89 -156 -119 -136 -139 14 -14 127 -54 235 -83
374 -101 804 -85 1173 45 129 45 128 53 -22 161 -165 119 -150 113 -246 89
-92 -23 -303 -51 -387 -51 -81 0 -306 28 -375 46 -110 30 -99 33 -242 -68z"/>
<path d="M10735 13612 c-41 -52 -382 -429 -395 -437 -27 -17 -8 -53 61 -113
75 -66 111 -77 117 -36 2 16 -5 25 -27 34 -39 16 -81 55 -81 74 0 15 125 165
160 193 24 19 40 15 70 -17 33 -35 56 -38 66 -8 5 17 -1 27 -25 47 -18 15 -31
35 -31 48 0 12 27 52 62 92 76 87 100 92 148 31 17 -22 38 -40 46 -40 19 0 29
27 18 49 -14 28 -122 121 -142 121 -9 0 -30 -17 -47 -38z"/>
<path d="M5171 13589 c-105 -75 -87 -202 52 -377 96 -122 236 -212 328 -212
39 0 52 5 78 32 24 24 31 41 31 70 0 21 -4 38 -10 38 -5 0 -10 -4 -10 -9 0 -5
-12 -23 -26 -40 -51 -61 -143 -30 -271 92 -127 121 -202 244 -188 311 7 37 32
66 57 66 11 0 28 5 39 11 20 10 20 11 3 30 -23 26 -34 24 -83 -12z"/>
<path d="M6240 13546 c0 -8 5 -18 10 -21 6 -3 10 1 10 9 0 8 -4 18 -10 21 -5
3 -10 -1 -10 -9z"/>
<path d="M4909 13314 c-8 -10 -10 -20 -3 -29 5 -8 114 -112 243 -232 239 -222
273 -246 279 -193 2 20 -6 33 -35 56 -57 46 -405 373 -421 395 -16 23 -45 25
-63 3z"/>
<path d="M11167 13172 c-72 -65 -401 -338 -429 -356 -30 -19 -40 -39 -32 -61
12 -30 46 -13 145 70 56 47 109 85 120 85 10 0 25 12 33 28 20 38 202 187 229
187 14 0 27 -10 35 -27 11 -24 11 -33 -4 -63 -33 -71 -143 -144 -216 -145 -42
0 -47 -9 -20 -33 75 -68 314 92 314 210 0 29 -9 45 -53 89 -29 30 -59 54 -66
54 -8 0 -32 -17 -56 -38z"/>
<path d="M4632 12988 c-23 -23 -12 -46 37 -81 81 -59 104 -68 138 -55 26 10
55 2 252 -65 175 -61 227 -75 242 -67 29 16 23 35 -23 73 -64 51 -87 60 -153
62 -45 1 -98 14 -210 54 -82 29 -164 58 -180 65 -51 22 -89 28 -103 14z"/>
<path d="M11405 12896 c-51 -39 -443 -305 -475 -321 -34 -18 -42 -61 -13 -72
18 -7 24 -4 158 90 53 37 108 67 121 67 16 0 34 -14 59 -46 19 -26 35 -51 35
-56 0 -25 -29 -51 -140 -123 -107 -70 -121 -82 -118 -105 5 -39 31 -35 105 18
37 27 156 108 263 180 232 156 222 148 218 175 -5 39 -36 29 -137 -42 -123
-88 -138 -89 -185 -20 -28 42 -33 56 -25 73 6 11 55 50 109 86 95 62 119 87
105 110 -11 17 -49 11 -80 -14z"/>
<path d="M4502 12811 c-8 -4 -12 -19 -10 -31 2 -16 28 -38 93 -77 110 -67 125
-80 125 -108 0 -28 -50 -104 -73 -111 -19 -6 -126 53 -194 107 -39 32 -53 35
-71 17 -20 -20 -13 -47 16 -62 39 -20 484 -305 504 -323 24 -21 62 -13 66 14
3 17 -7 28 -40 49 -24 14 -80 49 -125 78 -109 67 -117 95 -49 169 42 46 48 45
198 -58 91 -63 112 -74 128 -65 42 23 23 46 -97 121 -65 40 -190 120 -278 177
-180 117 -175 115 -193 103z"/>
<path d="M5120 12561 c0 -5 5 -13 10 -16 6 -3 10 -2 10 4 0 5 -4 13 -10 16 -5
3 -10 2 -10 -4z"/>
<path d="M11618 12512 c-31 -20 -155 -93 -277 -162 -130 -74 -223 -133 -227
-144 -3 -10 0 -25 9 -33 14 -14 21 -12 74 20 32 19 157 92 278 161 268 152
263 149 249 173 -17 29 -45 25 -106 -15z"/>
<path d="M4277 12429 c-27 -16 -77 -96 -77 -125 0 -113 206 -283 406 -334 91
-23 143 -25 187 -6 66 28 104 100 74 140 -13 18 -15 17 -33 -20 -13 -26 -32
-45 -58 -58 -37 -18 -42 -18 -115 -2 -116 25 -270 105 -348 181 -57 57 -63 66
-63 104 0 36 4 44 35 63 19 13 37 29 39 35 7 18 -26 33 -47 22z"/>
<path d="M11746 12355 c-10 -8 -139 -73 -287 -146 -206 -102 -269 -137 -269
-151 0 -24 64 -150 84 -167 19 -16 46 -7 46 15 0 9 -13 32 -30 51 -59 67 -49
75 258 226 147 72 270 135 274 141 11 17 -11 46 -35 46 -12 0 -30 -7 -41 -15z"/>
<path d="M11895 12057 c-21 -14 -415 -180 -517 -217 -56 -21 -78 -46 -62 -71
10 -17 47 -6 184 51 212 89 292 122 375 155 64 25 81 36 83 55 6 36 -28 51
-63 27z"/>
<path d="M4092 12033 c-28 -24 -77 -152 -66 -170 10 -15 24 -21 324 -137 107
-42 213 -85 235 -96 22 -11 47 -20 56 -20 22 0 44 28 59 75 7 22 19 49 26 60
21 29 17 72 -6 85 -29 15 -40 5 -40 -38 0 -42 -32 -102 -55 -102 -18 0 -215
78 -232 92 -18 14 -16 44 3 73 13 20 14 28 4 40 -23 28 -47 18 -62 -27 -17
-55 -32 -57 -136 -18 -115 44 -127 67 -76 137 22 29 23 33 8 47 -19 20 -17 20
-42 -1z"/>
<path d="M11980 11871 c-8 -5 -145 -53 -305 -107 -159 -54 -293 -102 -297
-108 -13 -18 -9 -36 9 -43 18 -7 48 1 177 46 48 18 95 31 105 29 9 -1 32 7 51
18 19 12 53 27 75 34 22 6 69 23 105 37 79 29 120 22 120 -23 0 -42 -54 -87
-139 -114 -73 -23 -76 -23 -120 -7 -62 23 -63 24 -68 11 -2 -6 10 -25 26 -43
26 -28 35 -31 88 -31 125 1 273 83 273 153 0 36 -57 157 -73 157 -7 0 -19 -5
-27 -9z"/>
<path d="M3982 11741 c-7 -4 -29 -61 -48 -127 l-36 -119 23 -17 c28 -24 47 -9
51 40 4 51 21 51 175 4 70 -22 171 -52 223 -67 52 -15 119 -36 148 -47 55 -21
78 -19 89 8 9 25 -18 44 -93 63 -167 44 -461 134 -481 147 -28 17 -29 36 -6
75 16 26 16 31 3 39 -18 12 -31 12 -48 1z"/>
<path d="M12055 11520 c-19 -9 -184 -51 -410 -105 -60 -14 -123 -29 -139 -33
-42 -10 -57 -39 -31 -58 11 -8 27 -13 35 -11 117 34 215 57 244 57 20 0 47 6
59 14 31 21 230 68 269 64 29 -3 33 -7 36 -34 2 -25 -3 -37 -28 -57 -64 -54
-191 -72 -259 -37 -31 16 -40 17 -44 6 -15 -38 58 -86 130 -86 95 0 192 37
237 90 33 40 32 71 -2 140 -28 58 -53 70 -97 50z"/>
<path d="M3884 11388 c-10 -16 33 -48 65 -48 l26 1 -33 29 c-35 33 -47 36 -58
18z"/>
<path d="M3995 11320 c3 -5 14 -10 23 -10 15 0 15 2 2 10 -20 13 -33 13 -25 0z"/>
<path d="M4093 11251 c9 -36 -8 -44 -125 -53 -94 -8 -116 -13 -130 -30 -14
-15 -15 -24 -7 -40 8 -16 18 -19 42 -14 302 53 336 53 539 4 88 -21 116 -19
125 8 8 24 -25 38 -158 64 -79 16 -175 40 -213 54 -82 31 -80 31 -73 7z"/>
<path d="M12151 11183 c-8 -3 -147 -29 -309 -57 -312 -54 -339 -64 -300 -102
14 -14 23 -15 62 -5 44 11 106 22 421 75 208 36 197 32 193 64 -2 21 -9 27
-28 29 -14 1 -31 -1 -39 -4z"/>
<path d="M4445 10990 c-3 -5 -1 -28 5 -51 9 -34 8 -45 -5 -65 -9 -14 -23 -28
-30 -30 -8 -3 -83 3 -167 15 -84 11 -182 23 -218 26 -36 4 -98 13 -139 21 -55
10 -78 11 -88 3 -16 -14 -17 -45 -2 -55 6 -3 68 -12 137 -20 70 -7 216 -25
325 -40 119 -16 202 -23 208 -17 5 5 16 48 25 96 15 83 15 89 -1 107 -20 22
-40 26 -50 10z"/>
<path d="M12135 10970 c-66 -14 -97 -29 -103 -52 -5 -20 -34 -35 -399 -209
-79 -38 -64 -85 25 -75 70 8 120 30 152 66 16 19 93 60 222 120 109 51 202 98
209 106 6 7 9 21 7 31 -4 21 -49 26 -113 13z"/>
<path d="M3965 10699 c-122 -18 -215 -92 -215 -171 0 -29 8 -45 43 -80 23 -24
59 -51 80 -61 96 -46 311 -61 436 -32 113 27 180 96 166 171 -15 84 -134 155
-290 173 -102 12 -135 12 -220 0z m320 -74 c82 -22 127 -45 144 -76 57 -103
-129 -168 -401 -141 -135 13 -195 35 -232 85 -19 26 -19 30 -6 54 18 33 68 63
129 79 68 18 294 17 366 -1z"/>
<path d="M11593 10522 c-9 -9 -13 -41 -13 -97 0 -66 4 -88 18 -106 24 -29 58
-20 47 14 -3 12 -9 41 -12 63 -8 63 14 74 150 74 134 0 147 -6 147 -66 0 -31
5 -46 15 -50 25 -10 45 16 45 55 0 55 12 61 115 61 111 0 141 -14 130 -64 -13
-63 -11 -80 9 -84 32 -7 46 25 46 103 0 115 26 107 -355 108 -261 2 -331 -1
-342 -11z"/>
<path d="M3876 10246 c-27 -8 -61 -26 -78 -44 -30 -29 -30 -31 -23 -100 11
-113 -8 -107 273 -83 133 12 277 21 320 21 90 0 119 13 107 49 -7 23 -9 23
-92 16 -47 -4 -119 -7 -161 -7 -43 1 -95 -3 -117 -8 -22 -4 -91 -11 -152 -15
l-112 -7 -12 25 c-14 32 0 61 44 84 23 12 56 17 117 18 73 0 90 -3 117 -22 56
-41 84 -22 43 30 -41 51 -167 71 -274 43z"/>
<path d="M11602 10223 c-17 -7 -42 -57 -42 -84 0 -40 38 -84 95 -113 50 -26
63 -28 134 -24 67 4 87 10 147 43 174 98 219 107 275 57 31 -27 31 -30 19 -66
-6 -20 -9 -40 -6 -43 12 -12 38 9 53 44 14 35 14 40 -3 72 -28 51 -92 81 -170
81 -58 0 -73 -5 -189 -65 -141 -72 -178 -79 -252 -45 -51 23 -65 58 -39 101
22 38 13 56 -22 42z"/>
<path d="M4130 9811 c0 -124 54 -403 101 -524 36 -93 82 -187 90 -187 40 0
-77 561 -148 718 -21 45 -43 42 -43 -7z"/>
<path d="M11877 9823 c-8 -16 -24 -62 -36 -103 -12 -41 -33 -111 -46 -155 -21
-68 -56 -253 -79 -412 -6 -43 4 -62 22 -40 21 26 92 207 117 297 37 140 72
383 60 421 -9 27 -22 24 -38 -8z"/>
<path d="M4424 9265 c-16 -42 38 -263 96 -390 54 -119 90 -243 90 -311 0 -102
-33 -93 -133 38 -62 82 -105 161 -196 358 -61 133 -94 190 -105 179 -10 -9 21
-162 53 -263 16 -52 44 -124 63 -158 42 -80 147 -186 218 -221 36 -18 75 -50
113 -92 32 -36 62 -65 68 -65 17 0 9 49 -17 116 -26 63 -26 69 -14 134 15 78
2 198 -31 284 -40 107 -176 400 -187 404 -7 2 -15 -4 -18 -13z"/>
<path d="M11593 9268 c-9 -13 -82 -173 -150 -333 -56 -131 -75 -262 -52 -362
10 -43 9 -54 -13 -108 -14 -33 -28 -75 -31 -92 -10 -51 14 -41 79 31 35 41 77
75 110 92 65 33 154 118 204 195 41 64 102 243 122 356 22 132 -8 110 -87 -65
-110 -242 -157 -325 -235 -420 -77 -94 -111 -91 -103 11 6 75 38 179 92 306
48 110 77 208 90 304 12 86 1 121 -26 85z"/>
<path d="M4833 8481 c9 -74 60 -194 129 -299 33 -52 78 -131 99 -177 22 -46
44 -87 49 -90 17 -11 11 -69 -11 -104 l-21 -35 33 -28 c44 -36 113 -71 117
-59 4 12 -23 66 -53 106 -17 23 -24 50 -29 113 -10 112 -29 182 -74 272 -52
102 -206 336 -227 344 -16 6 -17 1 -12 -43z"/>
<path d="M11191 8513 c-26 -23 -173 -248 -216 -333 -46 -90 -64 -160 -72 -265
-4 -64 -11 -96 -23 -110 -27 -31 -73 -115 -67 -121 7 -7 92 38 132 70 29 23
29 24 12 44 -10 11 -21 38 -24 59 -4 33 5 56 64 168 39 72 88 159 111 194 47
73 97 194 107 264 8 52 6 55 -24 30z"/>
<path d="M4465 8293 c39 -93 177 -290 254 -362 104 -97 242 -165 296 -145 25
10 18 20 -44 57 -83 52 -149 114 -257 243 -101 121 -228 244 -250 244 -12 0
-12 -6 1 -37z"/>
<path d="M11487 8253 c-44 -43 -122 -128 -173 -190 -98 -117 -142 -157 -237
-218 -32 -20 -56 -42 -54 -48 7 -21 79 -8 156 28 93 44 210 159 300 293 147
220 151 272 8 135z"/>
<path d="M5343 7844 c14 -84 61 -154 190 -280 123 -121 211 -233 205 -263 -2
-12 -18 -17 -59 -19 -49 -3 -69 3 -144 37 -48 23 -126 70 -174 105 -47 35
-103 73 -123 85 -62 34 -192 81 -201 72 -19 -19 194 -202 313 -269 110 -62
237 -91 315 -71 44 11 48 10 148 -40 57 -28 114 -51 128 -51 20 0 11 13 -67
88 -80 77 -97 100 -136 183 -25 52 -66 121 -91 154 -47 62 -262 281 -293 298
-15 9 -16 6 -11 -29z"/>
<path d="M10675 7861 c-38 -24 -173 -162 -254 -261 -38 -45 -82 -114 -111
-175 -42 -88 -58 -110 -134 -183 -47 -45 -86 -85 -86 -88 0 -14 69 9 156 52
90 45 95 46 136 35 52 -15 150 -2 231 30 101 40 232 131 340 236 60 59 74 90
35 77 -90 -28 -199 -85 -279 -145 -52 -38 -136 -89 -186 -114 -83 -41 -99 -46
-150 -43 -50 3 -58 6 -61 24 -5 33 103 168 218 274 89 82 106 103 141 176 22
46 39 93 37 104 -3 20 -3 20 -33 1z"/>
<path d="M6361 7224 c-21 -15 -51 -70 -51 -94 0 -17 20 -11 55 16 20 15 44 24
57 22 37 -5 35 -49 -5 -132 -19 -39 -65 -137 -101 -217 -40 -86 -79 -158 -97
-175 -16 -15 -29 -31 -29 -36 0 -13 63 -48 86 -48 18 0 22 7 26 43 5 38 186
464 210 495 29 34 78 -7 78 -65 0 -22 5 -33 15 -33 21 0 47 55 43 92 -3 27
-10 33 -83 65 -44 19 -101 45 -126 59 -56 29 -49 28 -78 8z"/>
<path d="M9565 7204 c-38 -19 -92 -71 -98 -93 -7 -28 11 -61 32 -61 14 0 23 9
27 28 12 54 16 62 34 72 27 14 63 -2 93 -42 41 -56 50 -100 43 -217 -19 -305
-19 -320 -6 -336 7 -8 19 -15 26 -15 24 0 223 103 229 118 7 20 -26 86 -45 90
-8 1 -23 -11 -32 -28 -19 -33 -97 -76 -122 -67 -21 8 -21 78 1 224 19 133 10
196 -37 262 -49 67 -98 90 -145 65z"/>
<path d="M9223 7057 c-58 -39 -75 -115 -49 -212 25 -95 72 -158 128 -170 24
-6 39 -1 75 24 51 36 47 35 67 15 31 -31 12 -224 -22 -224 -11 0 -33 -46 -25
-54 27 -27 94 38 112 110 41 164 -60 458 -180 520 -38 19 -68 17 -106 -9z
m104 -59 c41 -42 83 -133 83 -179 0 -41 -37 -89 -68 -89 -28 0 -70 36 -91 78
-24 47 -44 143 -35 168 22 61 65 69 111 22z"/>
<path d="M6825 7018 c-9 -13 -36 -57 -61 -98 -25 -41 -57 -91 -72 -111 -15
-20 -55 -76 -89 -125 -34 -49 -80 -107 -102 -129 -51 -49 -52 -71 -7 -90 48
-20 66 -11 66 33 0 45 43 120 77 133 34 13 99 -8 124 -40 17 -21 19 -34 14
-71 -3 -25 -15 -57 -26 -72 -26 -37 -24 -55 11 -73 35 -18 66 -19 76 -4 4 7 6
46 5 87 -2 69 15 277 39 474 5 43 7 85 4 93 -9 22 -41 18 -59 -7z m-18 -219
c-8 -94 -23 -133 -55 -137 -31 -5 -72 23 -72 48 0 11 11 38 25 60 14 22 25 43
25 47 0 13 54 63 68 63 12 0 14 -14 9 -81z"/>
<path d="M8899 6955 c-66 -43 -85 -133 -52 -248 31 -113 113 -167 176 -117 71
56 109 -14 73 -135 -8 -26 -29 -63 -47 -81 -20 -20 -29 -39 -26 -48 10 -24 24
-19 68 22 56 53 83 134 76 227 -12 150 -74 314 -142 373 -43 38 -76 40 -126 7z
m99 -48 c31 -32 72 -139 72 -185 0 -71 -55 -112 -111 -82 -57 31 -93 207 -54
266 20 31 64 32 93 1z"/>
<path d="M7155 6934 c-84 -46 -145 -145 -185 -300 -58 -222 -7 -341 146 -346
35 -1 74 -2 87 -2 20 -1 24 7 38 80 9 45 24 103 34 128 22 58 10 79 -43 74
l-36 -3 -1 -71 c-2 -81 -24 -136 -67 -161 -25 -16 -28 -15 -62 10 -49 38 -61
87 -47 186 31 205 114 371 186 371 34 0 53 -16 79 -68 14 -28 20 -31 32 -21
24 20 14 88 -16 110 -36 27 -108 33 -145 13z"/>
<path d="M7437 6893 c-4 -3 -7 -27 -7 -53 0 -25 -13 -128 -30 -228 -16 -101
-30 -206 -30 -235 0 -102 57 -161 157 -161 44 0 57 4 84 29 62 60 73 101 89
345 6 96 17 191 25 210 9 24 10 41 4 53 -11 19 -54 23 -64 7 -4 -6 -8 -68 -10
-138 -4 -136 -28 -344 -46 -389 -33 -87 -124 -100 -164 -23 -20 38 -19 90 4
235 11 66 22 147 26 180 4 33 13 75 21 94 18 44 18 67 -2 75 -21 8 -49 8 -57
-1z"/>
<path d="M8594 6868 c-31 -35 -41 -51 -48 -75 -6 -19 -3 -22 25 -25 18 -2 35
-10 40 -18 4 -8 21 -104 38 -212 32 -202 31 -229 -3 -257 -9 -7 -16 -20 -16
-29 0 -12 10 -13 63 -8 79 9 137 24 137 36 0 5 -15 16 -34 24 -19 8 -39 23
-45 33 -5 11 -28 129 -51 264 -52 311 -47 289 -68 289 -10 0 -27 -10 -38 -22z"/>
<path d="M8135 6855 c-95 -34 -137 -133 -143 -332 -4 -136 9 -215 45 -269 35
-54 121 -82 170 -56 12 7 37 12 56 12 19 0 39 6 45 13 6 7 9 66 8 142 l-2 130
-35 3 c-51 4 -66 -17 -45 -62 23 -50 21 -141 -5 -177 -38 -54 -110 -26 -144
55 -25 59 -37 213 -25 310 13 102 19 122 55 164 38 45 68 42 116 -10 32 -35
41 -40 49 -28 12 19 1 71 -19 92 -23 24 -80 30 -126 13z"/>
<path d="M7831 6846 c-9 -10 -10 -25 -3 -48 5 -18 8 -58 6 -88 -2 -30 -8 -136
-14 -235 -6 -99 -16 -197 -22 -217 -8 -29 -8 -41 2 -53 14 -16 65 -21 74 -6 3
5 8 134 11 288 2 172 8 290 16 311 6 18 8 39 5 47 -7 19 -60 20 -75 1z"/>
<path d="M6466 5023 c-3 -3 -6 -593 -6 -1310 l0 -1303 450 0 450 0 -2 168 -3
167 -275 3 c-204 2 -276 5 -282 15 -4 6 -8 517 -8 1135 l0 1122 -137 1 c-76 0
-147 2 -159 4 -12 3 -24 2 -28 -2z"/>
<path d="M8470 5015 c-6 -9 -54 -267 -80 -435 -5 -30 -16 -95 -25 -145 -9 -49
-32 -182 -51 -295 -19 -113 -44 -257 -55 -320 -11 -63 -24 -140 -29 -170 -4
-30 -23 -136 -40 -235 -17 -99 -36 -205 -40 -235 -5 -30 -18 -107 -29 -170
-69 -399 -99 -585 -95 -592 3 -4 79 -8 168 -8 l164 0 11 77 c6 43 18 125 26
183 9 58 18 128 22 155 11 90 -2 85 221 85 108 0 203 -4 210 -9 8 -4 17 -37
22 -72 16 -122 41 -294 52 -357 l10 -62 167 2 c189 3 173 -7 152 103 -23 123
-71 405 -96 555 -14 85 -29 178 -35 205 -5 28 -27 158 -49 290 -23 132 -70
413 -106 625 -36 212 -81 482 -101 600 -20 118 -39 218 -43 222 -10 11 -342
14 -351 3z m195 -735 c3 -25 10 -74 16 -110 5 -36 18 -130 29 -210 11 -80 24
-176 30 -215 6 -38 22 -151 36 -250 14 -99 28 -196 31 -216 l5 -37 -144 -7
c-79 -4 -153 -6 -164 -4 -32 7 -31 43 6 274 11 68 105 704 115 780 4 28 9 54
12 59 9 14 22 -16 28 -64z"/>
<path d="M4574 5010 c-27 -11 -72 -65 -82 -98 -4 -15 -7 -556 -7 -1202 0
-1172 0 -1175 21 -1215 11 -22 36 -50 54 -62 l33 -23 456 0 c435 0 457 1 488
20 18 10 41 37 53 59 19 38 20 57 20 415 l0 374 -102 7 c-57 4 -130 5 -163 3
l-60 -3 -5 -270 -5 -270 -225 0 -225 0 0 970 0 970 225 0 225 0 5 -255 5 -255
160 0 160 0 3 358 c2 336 1 361 -17 402 -14 32 -30 49 -60 64 -39 20 -55 21
-488 20 -246 0 -457 -4 -469 -9z"/>
<path d="M10103 5001 c-68 -42 -68 -41 -68 -491 l0 -405 25 -47 c21 -40 284
-331 595 -658 45 -47 95 -102 113 -123 l32 -38 0 -244 c0 -233 -1 -245 -20
-255 -12 -7 -91 -9 -212 -8 l-193 3 -5 260 -5 260 -155 8 c-85 4 -160 5 -168
2 -10 -4 -12 -76 -10 -378 l3 -374 25 -35 c46 -69 41 -68 526 -68 466 0 463 0
510 52 41 45 44 74 44 479 0 482 9 447 -159 629 -63 69 -147 159 -186 200
-106 112 -239 253 -338 359 l-87 95 2 235 3 236 190 3 c105 1 200 0 212 -3 23
-5 23 -6 25 -243 l3 -237 168 -3 167 -2 0 337 c-1 328 -1 339 -23 382 -12 25
-35 54 -50 65 -28 20 -42 21 -480 24 -435 2 -453 1 -484 -17z"/>
<path d="M5865 2788 c-3 -12 -4 -102 -3 -198 l3 -175 163 -3 162 -2 -2 196 -3
197 -157 5 -157 4 -6 -24z"/>
<path d="M7535 2788 c-3 -12 -4 -102 -3 -198 l3 -175 163 -3 162 -2 -2 196 -3
197 -157 5 -157 4 -6 -24z"/>
<path d="M9445 2688 c-3 -67 -4 -157 -2 -198 l4 -75 162 -3 161 -2 -2 196 -3
197 -156 5 -157 4 -7 -124z"/>
<path d="M11388 2804 c-5 -4 -8 -94 -8 -201 l0 -193 160 0 160 0 -2 196 -3
196 -150 5 c-82 3 -153 2 -157 -3z"/>
</g>
</svg>
