<?xml version="1.0" standalone="no"?>
<!DOCTYPE svg PUBLIC "-//W3C//DTD SVG 20010904//EN"
 "http://www.w3.org/TR/2001/REC-SVG-20010904/DTD/svg10.dtd">
<svg version="1.0" xmlns="http://www.w3.org/2000/svg"
 width="6667.000000pt" height="6667.000000pt" viewBox="0 0 6667.000000 6667.000000"
 preserveAspectRatio="xMidYMid meet">

<g transform="translate(0.000000,6667.000000) scale(0.100000,-0.100000)"
fill="#000000" stroke="none">
<path d="M31930 62619 c-257 -8 -329 -18 -371 -53 -40 -34 -161 -60 -445 -96
-982 -125 -2393 -425 -3287 -700 -317 -98 -1075 -360 -1282 -444 -578 -233
-835 -340 -985 -411 -363 -171 -1260 -626 -1595 -808 -148 -81 -864 -529
-1186 -743 -1321 -876 -2574 -1968 -3667 -3194 -1330 -1491 -2431 -3192 -3227
-4985 -759 -1711 -1193 -3237 -1485 -5220 -61 -417 -109 -646 -145 -702 -36
-54 -40 -237 -40 -1878 0 -1743 1 -1762 54 -1865 34 -65 72 -227 100 -430 98
-702 143 -971 237 -1432 394 -1935 1112 -3907 2007 -5513 244 -437 723 -1187
1162 -1820 145 -208 231 -347 244 -393 8 -25 6 -36 -8 -54 -28 -33 -76 -27
-188 26 -102 47 -164 63 -208 52 -61 -15 -15 -116 108 -233 149 -141 570 -485
956 -781 101 -78 238 -188 305 -245 361 -310 904 -852 1002 -1002 23 -36 11
-73 -30 -90 -18 -8 -91 -19 -162 -25 -155 -13 -198 -24 -219 -53 -19 -27 -19
-50 0 -87 18 -34 60 -58 160 -89 324 -104 941 -411 1386 -691 153 -97 197
-128 539 -385 1104 -829 2151 -1501 3040 -1949 456 -230 1150 -545 1600 -726
1550 -623 3017 -1000 4720 -1215 431 -54 725 -107 864 -155 154 -54 195 -55
1571 -55 1325 0 1411 3 1480 44 61 37 293 79 870 156 1997 267 3493 672 5215
1412 1490 640 2685 1349 4220 2504 349 262 537 392 755 521 414 244 892 480
1143 563 133 44 183 103 130 153 -32 29 -63 39 -187 61 -115 20 -191 51 -191
77 0 79 608 705 1115 1149 55 48 199 166 319 263 541 431 884 732 905 793 8
25 6 33 -14 57 -20 23 -30 27 -72 25 -26 -1 -81 -13 -122 -27 -40 -14 -95 -29
-122 -32 -43 -6 -49 -4 -49 11 0 29 91 180 246 406 938 1370 1459 2298 1994
3554 711 1670 1185 3405 1410 5160 37 289 62 416 100 512 58 145 74 552 74
1883 0 1330 -16 1738 -74 1883 -40 101 -65 230 -105 547 -223 1736 -681 3408
-1385 5050 -1103 2575 -2689 4809 -4750 6691 -1144 1045 -2463 1978 -3860
2731 -389 210 -1093 554 -1461 713 -469 204 -1397 550 -1850 690 -1065 330
-2323 606 -3384 740 -350 44 -469 71 -500 112 -18 23 -114 33 -400 43 -321 11
-2637 10 -2975 -1z m2075 -769 c922 -17 1173 -36 2012 -155 1116 -159 1996
-361 3118 -716 316 -101 384 -125 820 -294 641 -250 895 -357 1339 -566 1567
-740 3227 -1840 4395 -2914 737 -679 1584 -1554 2030 -2100 1601 -1959 2761
-4149 3460 -6530 216 -737 383 -1486 531 -2380 153 -924 187 -1511 177 -3040
-7 -972 -18 -1235 -73 -1765 -55 -526 -179 -1266 -320 -1905 -496 -2248 -1409
-4385 -2699 -6310 -2006 -2995 -4817 -5333 -8100 -6737 -1674 -716 -3357
-1165 -5090 -1358 -1576 -175 -3297 -155 -4785 56 -3405 482 -6628 1934 -9291
4184 -657 555 -1314 1195 -1874 1825 -886 995 -1687 2113 -2307 3220 -1184
2113 -1825 3989 -2202 6435 -94 614 -129 933 -147 1358 -14 348 -7 2566 10
2767 20 244 51 511 96 831 361 2538 1069 4655 2255 6733 684 1200 1477 2286
2455 3361 205 225 775 801 1020 1030 1069 1000 2241 1870 3465 2572 639 367
1299 693 1960 968 190 79 970 387 1095 432 230 82 901 287 1325 403 510 141
1101 268 1690 364 691 113 1590 218 2005 234 184 8 1156 6 1630 -3z"/>
<path d="M32099 61157 c-146 -42 -253 -168 -315 -372 -25 -82 -27 -105 -28
-260 0 -148 2 -181 23 -255 56 -207 157 -392 346 -630 311 -394 341 -450 384
-720 34 -211 -15 -418 -122 -517 -70 -64 -116 -67 -325 -17 -133 31 -155 31
-181 -2 -47 -60 -22 -99 104 -162 186 -92 305 -109 409 -58 77 38 210 170 253
251 73 140 103 294 103 536 0 355 -71 522 -394 937 -220 282 -305 421 -337
552 -17 72 -17 292 1 345 19 59 63 117 121 164 61 49 89 51 174 16 64 -26 143
-33 163 -13 7 7 12 25 12 42 0 41 -87 124 -155 149 -65 24 -177 31 -236 14z"/>
<path d="M33881 61150 c-79 -17 -130 -90 -131 -187 0 -72 17 -87 89 -79 31 3
99 9 151 12 85 5 99 3 128 -16 43 -27 70 -88 78 -176 3 -38 -3 -224 -15 -414
-11 -190 -23 -408 -26 -485 -14 -336 -53 -913 -85 -1275 -21 -227 16 -320 127
-320 88 0 134 67 158 228 9 57 19 257 25 487 21 801 70 1605 111 1833 10 55
16 67 43 83 26 17 44 19 121 16 50 -2 116 -10 147 -18 54 -12 60 -12 85 7 35
26 60 62 68 96 6 22 -1 35 -35 72 -83 90 -177 115 -435 116 -82 0 -208 5 -280
10 -71 5 -164 11 -205 14 -41 3 -95 1 -119 -4z"/>
<path d="M33164 61119 c-17 -5 -39 -18 -49 -29 -17 -19 -18 -52 -11 -763 4
-408 15 -1037 24 -1397 l17 -655 40 -7 c59 -10 154 -9 175 2 14 7 19 27 25 87
7 87 -11 1949 -24 2416 -10 335 -8 326 -86 346 -50 13 -68 13 -111 0z"/>
<path d="M35303 61026 c-21 -10 -33 -23 -38 -44 -12 -56 32 -311 155 -897 94
-446 103 -510 96 -670 -9 -214 -86 -744 -141 -986 -38 -164 -30 -238 30 -295
55 -51 153 -65 189 -25 16 18 53 233 116 674 66 464 98 630 166 855 57 188 49
226 -70 352 -106 112 -128 176 -186 535 -67 410 -88 477 -160 502 -47 16 -118
15 -157 -1z"/>
<path d="M30719 60996 c-20 -20 -270 -97 -357 -110 -165 -24 -177 -42 -169
-245 4 -108 28 -270 116 -791 60 -360 139 -853 176 -1095 93 -619 113 -707
165 -735 14 -7 47 -10 81 -8 48 3 65 10 89 33 55 53 61 120 20 252 -50 163
-110 512 -110 643 0 96 20 145 65 156 54 14 107 -50 286 -347 134 -222 212
-334 304 -436 106 -117 197 -167 269 -149 40 10 85 54 91 90 10 51 -15 96
-110 198 -168 178 -477 683 -600 979 -31 74 -36 154 -12 211 8 20 41 64 72 98
93 101 141 232 152 417 17 283 -96 605 -258 733 -71 56 -250 126 -270 106z
m21 -276 c126 -64 211 -241 241 -506 20 -179 -8 -403 -62 -491 -28 -45 -106
-83 -173 -83 -68 0 -105 39 -139 146 -53 166 -127 624 -127 781 0 89 1 94 31
128 17 19 45 39 63 45 44 13 118 5 166 -20z"/>
<path d="M36339 60857 c-43 -29 -81 -97 -120 -217 -36 -112 -44 -212 -17 -218
11 -2 29 15 53 54 21 32 67 96 103 143 102 135 128 212 80 245 -31 22 -59 20
-99 -7z"/>
<path d="M29240 60661 c-264 -56 -532 -157 -581 -219 -26 -34 -24 -51 17 -194
83 -290 392 -1503 563 -2210 34 -145 82 -274 111 -306 17 -18 32 -22 87 -22
174 0 654 137 738 212 58 50 71 142 26 182 -49 45 -119 28 -280 -68 -155 -92
-239 -95 -320 -14 -81 81 -149 261 -230 609 -100 436 -87 482 162 560 48 15
103 39 122 53 62 48 68 141 11 178 -26 16 -43 18 -101 14 -38 -3 -99 -14 -135
-26 -101 -31 -142 -27 -192 18 -97 87 -221 471 -235 727 -5 99 -4 115 15 151
25 49 71 90 131 117 34 15 62 18 130 17 220 -7 210 -8 238 24 21 25 24 36 19
70 -22 137 -97 169 -296 127z"/>
<path d="M38447 60426 c-140 -58 -348 -212 -461 -342 -400 -459 -689 -1425
-601 -2007 28 -190 90 -313 215 -431 189 -178 389 -190 625 -35 241 157 503
505 670 891 159 367 233 683 242 1028 7 286 -23 454 -109 597 -66 111 -241
259 -359 304 -68 26 -150 24 -222 -5z m233 -169 c52 -25 115 -111 149 -202 79
-212 64 -605 -39 -1016 -160 -636 -482 -1231 -740 -1368 -84 -45 -160 -49
-214 -10 -49 35 -128 136 -160 203 -36 77 -46 195 -36 436 20 455 121 883 304
1287 151 335 378 639 515 690 50 18 163 8 221 -20z"/>
<path d="M28074 60266 c-41 -31 -10 -200 41 -220 21 -8 49 7 69 36 34 49 8
145 -48 179 -37 23 -37 23 -62 5z"/>
<path d="M27110 59997 c-90 -30 -91 -168 -2 -296 57 -81 378 -644 783 -1372
193 -349 376 -672 406 -719 90 -140 152 -193 210 -182 39 7 101 74 109 117 14
78 -61 377 -133 525 -42 87 -57 106 -177 225 -195 194 -243 270 -691 1095
-157 287 -290 517 -319 548 -46 51 -129 77 -186 59z"/>
<path d="M39973 59865 c-61 -26 -91 -90 -437 -932 -296 -720 -440 -1051 -588
-1352 -84 -170 -100 -212 -101 -253 -1 -57 22 -94 74 -120 42 -22 110 -23 149
-3 41 21 62 61 135 256 173 457 327 796 401 878 77 85 126 88 259 15 149 -82
255 -61 255 51 0 82 -31 108 -199 171 -84 31 -154 91 -163 139 -8 40 13 116
74 264 72 175 231 493 268 535 17 19 51 42 75 52 84 32 160 5 290 -101 174
-144 245 -141 245 10 0 119 -48 155 -393 299 -237 98 -294 113 -344 91z"/>
<path d="M26453 59711 c-46 -21 -73 -62 -73 -111 0 -50 33 -132 138 -350 110
-227 120 -250 352 -800 351 -834 578 -1339 616 -1372 53 -45 154 -41 194 9 25
32 22 55 -32 213 -47 137 -52 149 -233 560 -263 599 -609 1418 -694 1640 -49
131 -72 170 -111 196 -51 33 -106 39 -157 15z"/>
<path d="M24800 58907 c-36 -18 -53 -60 -45 -113 13 -92 182 -389 298 -525 52
-61 63 -69 151 -104 197 -78 366 -208 881 -680 472 -431 691 -616 793 -667 62
-31 65 -31 105 -17 54 18 69 47 64 124 -7 100 -78 240 -191 374 -72 87 -163
162 -282 233 -198 118 -494 364 -1034 858 -351 321 -517 456 -620 504 -62 29
-84 31 -120 13z"/>
<path d="M41980 58909 c-61 -25 -100 -85 -100 -154 0 -57 21 -80 83 -88 84
-12 201 -87 233 -149 16 -30 15 -33 -31 -122 -154 -294 -825 -1428 -1101
-1862 -102 -160 -127 -215 -128 -277 0 -69 32 -99 112 -105 52 -4 61 -1 90 23
66 55 161 205 585 920 429 724 661 1091 750 1188 29 30 41 37 73 37 45 0 81
-20 167 -92 99 -82 162 -98 213 -55 32 28 44 108 24 157 -28 69 -167 170 -548
399 -285 172 -362 205 -422 180z"/>
<path d="M43395 58022 c-58 -36 -136 -136 -571 -734 -241 -331 -560 -764 -709
-961 -377 -499 -373 -494 -384 -534 -13 -46 4 -87 53 -131 47 -41 86 -42 148
-3 59 38 118 110 268 328 218 315 350 484 468 595 87 82 122 95 194 74 162
-47 388 -258 388 -361 0 -86 -188 -372 -524 -799 -159 -201 -196 -262 -196
-323 0 -47 24 -77 84 -104 58 -26 98 -24 135 7 17 14 110 136 208 272 215 300
660 907 913 1247 395 532 519 719 506 771 -14 53 -133 107 -188 86 -31 -13
-103 -104 -360 -456 -254 -348 -312 -406 -405 -406 -112 0 -392 205 -447 328
l-19 43 22 47 c38 79 142 230 314 459 233 312 287 395 287 446 0 28 -39 84
-77 109 -36 23 -70 23 -108 0z"/>
<path d="M23225 57905 c-41 -21 -95 -83 -95 -110 0 -40 58 -133 378 -610 578
-861 754 -1104 941 -1299 108 -111 178 -165 278 -215 205 -102 301 -105 475
-14 116 60 201 161 238 282 19 61 27 172 14 205 -11 29 -48 17 -109 -34 -210
-177 -292 -230 -354 -230 -84 0 -243 81 -354 180 -58 51 -218 263 -427 565
-217 312 -656 975 -715 1079 -114 200 -178 247 -270 201z"/>
<path d="M32385 57389 c-731 -84 -1579 -216 -2018 -315 -914 -204 -1821 -510
-2732 -919 -204 -92 -760 -373 -980 -495 -1972 -1097 -3638 -2635 -4882 -4505
-455 -685 -848 -1405 -1190 -2185 -508 -1156 -832 -2312 -1032 -3680 -84 -572
-115 -1081 -115 -1885 0 -784 31 -1308 109 -1848 362 -2492 1229 -4590 2712
-6559 1083 -1439 2431 -2656 3963 -3580 2433 -1467 5379 -2175 8205 -1972
2967 212 5788 1366 8070 3299 288 244 522 461 841 779 509 510 887 945 1308
1504 1398 1863 2249 3859 2635 6187 125 756 164 1271 163 2200 0 1035 -57
1659 -238 2605 -343 1791 -1004 3442 -1991 4971 -1351 2092 -3254 3804 -5478
4924 -1215 612 -2467 1031 -3835 1284 -495 91 -936 143 -1560 182 -221 14
-1847 21 -1955 8z m1085 -747 c52 -25 95 -123 194 -442 47 -151 157 -493 245
-760 87 -267 250 -766 361 -1110 778 -2409 757 -2349 864 -2448 72 -65 147
-94 421 -162 538 -133 1271 -417 1835 -713 807 -421 1480 -915 2110 -1546 423
-425 739 -812 1110 -1361 167 -247 276 -396 318 -433 18 -16 56 -19 373 -28
195 -5 1286 -14 2424 -19 1286 -6 2102 -13 2154 -20 93 -11 164 -40 187 -76
14 -21 14 -25 0 -46 -47 -67 -486 -393 -2146 -1597 -1851 -1341 -1855 -1344
-1903 -1449 -22 -47 -22 -50 -28 -887 -6 -880 -10 -964 -59 -1345 -80 -614
-261 -1296 -516 -1939 -329 -829 -783 -1594 -1358 -2290 -196 -237 -247 -322
-262 -438 -10 -83 8 -157 135 -539 66 -197 228 -699 361 -1114 133 -415 324
-1006 426 -1313 319 -964 476 -1478 523 -1704 26 -126 26 -155 2 -177 -47 -42
-111 0 -1225 813 -758 553 -1108 807 -1541 1116 -396 283 -857 620 -1105 808
-79 60 -164 118 -188 128 -109 47 -230 43 -357 -13 -218 -95 -305 -128 -545
-208 -836 -280 -1438 -404 -2255 -462 -221 -15 -901 -15 -1125 1 -1065 75
-1971 285 -2763 641 -166 74 -213 82 -307 50 -169 -56 -384 -200 -1330 -889
-360 -262 -1703 -1234 -2170 -1571 -369 -266 -619 -430 -656 -430 -45 0 -57
26 -51 110 8 113 52 255 587 1890 650 1986 900 2791 900 2899 0 41 -106 194
-245 355 -496 574 -980 1364 -1308 2136 -337 793 -553 1607 -631 2385 -36 352
-41 485 -37 1005 8 969 10 917 -41 994 -55 83 -265 243 -1493 1131 -440 318
-1043 755 -1340 970 -297 215 -607 439 -690 498 -212 150 -306 226 -417 338
-87 86 -122 139 -105 156 33 32 493 42 1942 43 1897 1 2961 17 3123 46 28 5
54 24 112 83 78 79 115 130 303 416 450 683 1160 1463 1791 1969 702 563 1658
1091 2571 1423 210 76 371 125 656 198 244 63 375 108 424 147 57 44 165 315
345 863 287 873 505 1543 735 2255 413 1281 511 1569 565 1658 22 36 31 36
100 4z"/>
<path d="M35344 51369 c-46 -13 -60 -54 -46 -133 41 -218 326 -1091 397 -1212
14 -23 52 -63 86 -88 61 -46 107 -70 309 -161 162 -73 494 -243 710 -363 693
-386 928 -572 1716 -1355 l431 -428 584 -6 c617 -6 752 0 834 36 53 24 62 52
36 120 -48 126 -367 557 -706 951 -846 986 -1830 1716 -2974 2207 -443 190
-1115 416 -1301 436 -25 3 -59 1 -76 -4z"/>
<path d="M31284 51340 c-142 -37 -506 -158 -739 -245 -1487 -558 -2749 -1509
-3729 -2812 -248 -330 -350 -504 -344 -590 4 -64 29 -80 148 -94 124 -14 805
-14 1020 0 226 16 287 26 330 59 52 39 189 178 340 347 432 481 997 955 1490
1249 446 266 1055 575 1133 576 99 1 203 127 308 375 124 294 329 971 329
1092 0 78 -96 93 -286 43z"/>
<path d="M35974 49390 c-32 -13 -54 -50 -54 -91 0 -125 460 -1430 554 -1574
43 -65 129 -83 459 -95 340 -13 1091 -13 1218 1 151 15 202 44 180 101 -31 82
-365 420 -656 663 -339 284 -902 658 -1280 850 -225 115 -372 165 -421 145z"/>
<path d="M30775 49365 c-262 -70 -917 -462 -1380 -823 -365 -285 -783 -680
-835 -788 -21 -42 -22 -50 -9 -72 32 -57 141 -70 637 -78 417 -6 993 8 1074
27 102 23 134 66 234 314 194 483 444 1254 444 1370 0 32 -4 38 -35 51 -41 17
-64 17 -130 -1z"/>
<path d="M41492 44099 c-58 -17 -431 -281 -830 -587 -237 -181 -256 -200 -275
-269 -27 -100 -46 -212 -72 -428 -140 -1157 -448 -2094 -973 -2964 -121 -201
-172 -314 -172 -384 0 -117 215 -821 360 -1179 54 -134 70 -161 105 -184 22
-14 27 -14 60 2 126 60 611 758 945 1359 564 1018 906 2185 1012 3455 18 214
17 878 0 985 -20 114 -47 174 -88 191 -19 8 -35 14 -36 13 -2 0 -18 -5 -36
-10z"/>
<path d="M25297 44048 c-54 -56 -65 -92 -79 -268 -20 -246 14 -886 73 -1390
140 -1198 598 -2438 1297 -3515 206 -317 493 -695 563 -742 99 -65 152 -12
260 262 68 170 221 632 254 765 35 141 44 301 20 389 -20 77 -34 106 -135 276
-153 259 -321 600 -481 978 -251 592 -347 955 -459 1737 -53 366 -92 599 -112
660 -31 97 -126 186 -438 412 -124 89 -288 207 -366 263 -146 106 -292 197
-332 210 -19 6 -31 -1 -65 -37z"/>
<path d="M27013 42865 c-46 -32 -63 -77 -63 -166 0 -284 180 -1076 345 -1520
179 -479 442 -1007 532 -1066 81 -53 199 32 218 157 9 62 68 260 185 620 123
382 161 504 201 655 71 269 36 313 -606 780 -165 120 -363 266 -440 324 -159
120 -322 231 -339 231 -6 0 -21 -7 -33 -15z"/>
<path d="M39795 42859 c-231 -123 -1026 -724 -1268 -958 -135 -131 -135 -131
114 -914 71 -224 154 -492 185 -595 31 -103 65 -202 77 -221 36 -60 118 -90
160 -58 65 49 339 591 487 962 166 417 372 1270 387 1608 7 134 0 157 -52 182
-42 19 -43 19 -90 -6z"/>
<path d="M33355 38150 c-70 -28 -227 -124 -387 -238 -430 -304 -971 -698 -984
-716 -26 -37 -18 -85 21 -122 63 -59 202 -97 486 -133 304 -39 459 -46 969
-46 448 0 514 3 695 23 473 54 651 96 714 168 17 19 31 45 31 57 0 27 -108
133 -255 250 -154 122 -573 426 -775 562 -295 198 -404 240 -515 195z"/>
<path d="M35305 36770 c-27 -4 -104 -21 -170 -38 -232 -59 -568 -117 -955
-166 -595 -76 -821 -76 -1425 -5 -449 53 -705 96 -971 165 -332 85 -341 82
-919 -331 -302 -215 -368 -267 -463 -359 -134 -129 -137 -184 -16 -245 168
-84 682 -251 1079 -350 381 -95 837 -168 1305 -208 257 -22 1000 -25 1245 -5
797 64 1430 192 2125 427 341 116 440 171 440 244 0 86 -113 184 -688 596
-350 250 -448 296 -587 275z"/>
<path d="M44869 56851 c-48 -30 -71 -55 -355 -381 -353 -404 -1172 -1307
-1363 -1502 -58 -59 -109 -117 -113 -129 -11 -29 6 -87 42 -141 95 -143 410
-421 557 -490 110 -52 177 -28 190 69 8 63 -15 96 -94 134 -154 75 -290 181
-333 262 -21 40 -22 47 -10 77 39 95 502 650 641 769 38 32 97 61 125 61 35 0
91 -38 179 -120 129 -121 190 -146 240 -96 30 30 50 95 41 132 -5 17 -46 67
-98 120 -92 91 -138 159 -138 202 0 53 101 205 246 374 188 217 288 298 378
306 86 7 134 -27 271 -192 64 -77 139 -136 174 -136 64 0 105 90 82 177 -28
104 -511 532 -602 533 -8 0 -35 -13 -60 -29z"/>
<path d="M21705 56726 c-64 -30 -196 -125 -258 -184 -67 -65 -121 -153 -153
-247 -51 -150 -34 -341 48 -558 106 -277 376 -667 652 -943 274 -272 572 -473
841 -567 134 -46 221 -60 341 -55 83 3 109 8 156 31 63 31 184 151 217 215 40
78 50 231 20 310 -15 39 -49 25 -78 -33 -34 -66 -114 -168 -154 -199 -182
-136 -436 -75 -779 186 -408 311 -818 785 -989 1143 -69 145 -92 237 -87 349
9 185 99 306 241 326 80 12 169 44 204 75 26 21 26 24 11 46 -27 41 -98 109
-124 119 -37 14 -54 12 -109 -14z"/>
<path d="M26012 56478 c-7 -7 -12 -23 -12 -37 0 -33 35 -91 55 -91 38 0 41 80
3 119 -22 24 -29 26 -46 9z"/>
<path d="M20500 55518 c-49 -33 -74 -73 -74 -115 0 -34 12 -47 175 -207 96
-94 316 -304 489 -466 1011 -949 1305 -1203 1433 -1238 33 -9 41 -8 63 11 19
17 26 35 31 79 9 87 -17 130 -141 236 -314 268 -1357 1244 -1671 1562 -77 78
-150 146 -163 151 -43 16 -107 10 -142 -13z"/>
<path d="M46725 55030 c-53 -24 -118 -76 -401 -321 -428 -368 -1267 -1063
-1483 -1227 -217 -165 -249 -205 -238 -299 6 -53 39 -93 77 -93 87 0 212 81
529 343 273 225 434 339 505 358 60 16 92 43 141 119 96 144 531 525 807 704
109 71 137 81 181 67 71 -24 137 -129 137 -220 0 -92 -101 -263 -230 -390
-221 -218 -517 -359 -755 -361 -66 0 -108 -16 -113 -42 -5 -27 82 -113 141
-139 209 -91 636 85 947 391 149 146 235 276 275 414 24 82 17 195 -14 258
-50 98 -324 377 -428 435 -38 22 -39 22 -78 3z"/>
<path d="M19323 54138 c-33 -20 -64 -64 -70 -101 -12 -75 73 -169 287 -319
240 -168 356 -211 469 -173 74 24 159 20 296 -15 66 -17 422 -131 790 -255
931 -311 957 -317 1034 -246 81 75 7 181 -260 373 -167 120 -258 150 -519 167
-169 12 -291 36 -504 100 -146 45 -775 266 -1011 356 -256 98 -323 117 -410
122 -53 2 -87 -1 -102 -9z"/>
<path d="M47675 53820 c-67 -21 -82 -31 -292 -181 -317 -227 -1552 -1060
-1860 -1254 -65 -41 -107 -110 -107 -177 0 -46 4 -54 38 -85 35 -32 42 -35 87
-31 62 6 124 44 464 279 366 253 581 379 650 379 82 0 223 -141 349 -348 44
-73 45 -106 5 -163 -61 -87 -167 -168 -584 -446 -432 -288 -461 -315 -453
-420 13 -157 132 -136 433 77 180 127 785 540 1320 900 443 299 611 418 660
470 25 26 30 39 29 79 -1 102 -46 145 -127 122 -98 -29 -219 -102 -547 -331
-186 -129 -330 -208 -397 -217 -51 -7 -105 11 -148 49 -66 57 -195 249 -230
341 -27 71 -12 111 68 182 91 80 227 181 427 315 303 204 410 303 410 376 0
48 -15 73 -55 90 -44 18 -67 17 -140 -6z"/>
<path d="M18769 53387 c-21 -14 -39 -37 -47 -61 -36 -112 33 -181 423 -421
437 -270 482 -312 473 -434 -5 -65 -43 -149 -117 -261 -59 -90 -143 -178 -178
-186 -83 -21 -460 182 -762 410 -160 120 -204 146 -251 146 -70 0 -140 -74
-140 -150 0 -70 40 -111 200 -206 259 -152 1318 -829 1759 -1123 311 -208 334
-221 383 -221 82 0 137 43 145 113 10 84 -28 122 -277 273 -213 129 -525 329
-601 385 -81 60 -156 138 -175 184 -17 41 -18 100 -3 146 28 82 196 291 273
338 92 57 191 15 592 -254 153 -104 313 -211 354 -239 41 -27 108 -67 148 -88
92 -48 133 -49 190 -8 74 53 69 105 -16 189 -70 69 -191 154 -426 302 -326
204 -834 528 -1209 771 -524 340 -652 418 -693 418 -6 0 -26 -10 -45 -23z"/>
<path d="M21341 52356 c-15 -18 0 -59 30 -79 42 -30 65 5 33 51 -23 33 -49 45
-63 28z"/>
<path d="M48655 52266 c-58 -19 -145 -65 -270 -143 -149 -94 -562 -336 -1020
-598 -435 -249 -676 -393 -856 -511 -202 -132 -219 -151 -198 -227 14 -53 61
-97 103 -97 46 1 74 15 501 265 215 125 685 396 1045 602 616 352 853 496 891
539 31 35 31 58 -1 108 -45 71 -106 90 -195 62z"/>
<path d="M17833 51795 c-86 -37 -258 -280 -314 -444 -23 -66 -24 -117 -4 -196
67 -263 366 -597 784 -874 289 -191 600 -329 924 -412 476 -120 739 -87 948
121 154 153 196 329 108 450 -46 63 -64 54 -124 -60 -73 -138 -142 -207 -269
-271 l-101 -51 -100 5 c-121 5 -361 59 -547 123 -325 111 -693 303 -961 501
-131 97 -392 358 -431 432 -49 92 -47 286 3 347 9 12 55 49 102 82 165 118
199 170 146 220 -43 40 -109 51 -164 27z"/>
<path d="M49045 51532 c-27 -10 -90 -42 -140 -71 -49 -28 -502 -258 -1005
-511 -921 -462 -1118 -566 -1218 -641 l-54 -42 5 -46 c15 -124 261 -602 348
-675 76 -65 189 -26 189 65 0 35 -58 133 -127 216 -95 114 -117 154 -111 208
7 61 49 110 157 184 142 97 337 200 1146 602 898 446 1023 513 1032 549 15 54
-10 109 -65 144 -52 35 -97 40 -157 18z"/>
<path d="M49625 50272 c-22 -10 -92 -43 -155 -74 -254 -124 -1548 -666 -2001
-838 -158 -60 -219 -91 -270 -137 -68 -61 -84 -114 -54 -172 46 -90 162 -56
976 284 618 259 1044 435 1299 537 352 140 400 172 408 271 5 68 -16 113 -63
133 -45 18 -90 17 -140 -4z"/>
<path d="M17083 50169 c-28 -22 -71 -69 -93 -105 -88 -134 -206 -439 -217
-562 -5 -57 -4 -65 18 -88 46 -50 206 -118 1009 -429 530 -205 1075 -424 1225
-492 302 -137 349 -142 438 -44 46 51 77 113 126 250 21 59 65 159 97 221 58
111 59 115 59 194 0 103 -22 150 -86 184 -57 30 -105 27 -132 -9 -14 -20 -21
-52 -27 -135 -12 -155 -50 -262 -129 -371 -43 -60 -80 -77 -134 -63 -117 30
-628 229 -822 320 -128 60 -155 89 -155 170 0 68 15 114 64 195 44 73 46 114
10 162 -47 62 -119 81 -167 43 -36 -28 -61 -72 -96 -169 -37 -101 -52 -126
-94 -151 -61 -38 -163 -21 -402 65 -152 55 -352 149 -413 194 -122 90 -111
199 39 407 32 44 62 95 65 112 6 29 1 38 -48 87 -30 30 -61 55 -69 55 -8 0
-37 -19 -66 -41z"/>
<path d="M49925 49470 c-94 -41 -454 -168 -940 -334 -875 -299 -1252 -431
-1467 -516 -93 -37 -109 -46 -122 -75 -41 -86 0 -155 96 -163 82 -6 271 48
682 195 210 74 384 123 443 123 55 0 120 25 294 114 82 41 196 89 264 111 66
21 202 68 302 106 224 83 324 109 420 109 129 0 183 -48 183 -162 -1 -207
-286 -406 -754 -527 -116 -30 -173 -27 -291 15 -190 68 -274 94 -290 88 -50
-20 -8 -117 101 -230 97 -101 123 -109 339 -109 148 1 199 5 285 23 302 65
584 205 741 369 132 136 151 224 89 403 -62 179 -163 384 -226 459 -33 39 -58
39 -149 1z"/>
<path d="M16624 48941 c-48 -22 -71 -64 -136 -246 -39 -109 -250 -797 -245
-800 1 -1 29 -22 62 -47 106 -79 143 -88 187 -40 32 34 46 77 59 172 20 157
40 176 179 167 102 -7 235 -42 675 -177 182 -55 499 -150 705 -211 206 -61
490 -149 630 -196 275 -92 336 -103 396 -70 20 10 41 34 54 62 19 39 20 49 10
80 -26 79 -131 127 -495 226 -795 217 -1791 526 -1902 589 -111 64 -113 153
-9 325 21 36 36 73 36 92 0 28 -6 36 -45 59 -60 35 -109 40 -161 15z"/>
<path d="M50270 48018 c-179 -68 -822 -232 -2095 -534 -295 -70 -333 -83 -380
-136 -33 -36 -37 -45 -32 -80 3 -22 15 -51 27 -63 30 -32 102 -65 141 -65 17
0 131 27 253 61 389 107 640 161 801 174 104 8 185 29 253 66 172 92 880 260
1087 258 133 -1 168 -38 163 -176 -3 -74 -6 -85 -34 -120 -76 -94 -226 -187
-390 -242 -142 -47 -271 -64 -442 -59 -158 6 -231 22 -342 78 -30 15 -72 33
-94 40 -34 11 -40 10 -58 -8 -30 -29 -27 -90 6 -146 33 -56 108 -115 207 -160
120 -55 196 -70 344 -69 262 1 540 76 749 201 92 54 211 162 255 231 41 64 65
158 56 224 -17 121 -130 375 -207 462 -76 86 -158 105 -268 63z"/>
<path d="M16203 47478 c-13 -13 -23 -36 -23 -51 0 -40 61 -101 137 -139 55
-27 80 -33 155 -36 55 -3 89 -1 87 5 -4 11 -179 167 -232 207 -51 39 -96 44
-124 14z"/>
<path d="M16636 47202 c-11 -18 37 -63 74 -70 41 -9 80 -5 80 8 0 13 -81 59
-117 66 -17 3 -33 1 -37 -4z"/>
<path d="M17051 46950 c-10 -5 -10 -20 0 -68 31 -151 -28 -177 -491 -217 -232
-19 -392 -41 -461 -61 -62 -18 -143 -91 -155 -138 -8 -35 10 -98 39 -131 34
-40 79 -40 302 -1 1043 183 1264 185 1990 17 331 -76 377 -84 480 -80 79 4 87
6 116 35 20 21 32 44 36 71 5 37 2 42 -33 71 -63 53 -219 98 -604 177 -438 90
-773 177 -983 256 -164 62 -221 79 -236 69z"/>
<path d="M50650 46604 c-111 -27 -607 -119 -1515 -278 -916 -161 -1123 -221
-1098 -317 8 -27 63 -88 96 -106 41 -21 104 -19 203 6 174 43 407 86 1379 250
1058 179 1151 198 1190 241 17 18 17 27 8 91 -7 39 -19 79 -29 90 -35 39 -133
49 -234 23z"/>
<path d="M18538 45810 c-29 -29 -30 -33 -23 -88 3 -31 15 -94 26 -140 26 -115
25 -181 -5 -240 -34 -67 -101 -140 -139 -150 -59 -16 -301 6 -890 83 -147 19
-390 48 -540 65 -328 36 -423 50 -725 101 -252 42 -336 48 -382 24 -42 -22
-64 -69 -64 -137 -1 -77 23 -102 111 -118 122 -21 339 -49 613 -80 260 -29
907 -110 1325 -165 295 -39 564 -65 680 -65 l106 0 15 35 c20 49 68 253 99
420 33 178 41 290 26 337 -20 61 -130 148 -186 148 -9 0 -30 -14 -47 -30z"/>
<path d="M50680 45733 c-80 -12 -236 -48 -305 -70 -144 -46 -208 -89 -239
-163 -8 -19 -25 -45 -38 -57 -68 -63 -389 -228 -1228 -628 -456 -218 -494
-238 -548 -289 -92 -86 -79 -169 33 -207 55 -19 219 -16 329 5 220 42 365 109
492 227 135 125 352 247 869 489 350 164 847 410 917 455 61 38 78 68 78 137
0 49 -32 81 -95 97 -41 10 -209 13 -265 4z"/>
<path d="M16675 44604 c-418 -48 -694 -165 -891 -376 -109 -117 -158 -229
-158 -364 0 -72 4 -89 32 -147 60 -122 309 -350 471 -431 393 -198 1332 -264
1854 -132 213 54 384 144 507 266 163 162 208 359 125 545 -110 250 -445 464
-890 568 -314 74 -762 104 -1050 71z m905 -294 c180 -17 275 -36 428 -85 259
-84 393 -169 453 -290 109 -221 -54 -405 -449 -509 -196 -52 -341 -68 -662
-73 -318 -6 -538 7 -815 48 -392 58 -608 161 -735 351 -47 71 -51 108 -16 176
37 72 89 126 181 187 196 130 385 184 729 205 168 11 736 4 886 -10z"/>
<path d="M48510 43883 c-106 -6 -188 -24 -206 -44 -33 -36 -45 -117 -51 -329
-6 -231 6 -377 38 -449 52 -118 172 -174 228 -107 17 20 12 74 -23 251 -32
166 -33 236 -3 295 49 98 160 120 614 120 338 0 444 -9 512 -43 67 -34 82 -71
91 -230 9 -155 21 -189 75 -207 40 -13 70 -6 103 24 46 41 64 93 73 213 5 61
15 127 23 146 18 45 66 73 148 87 96 17 613 8 688 -12 104 -27 153 -67 166
-134 4 -20 -3 -81 -15 -147 -27 -139 -29 -238 -7 -272 9 -14 33 -29 57 -35 34
-9 46 -8 77 7 84 41 111 156 112 471 0 268 -11 301 -110 344 -115 49 -143 51
-1380 53 -635 1 -1180 0 -1210 -2z"/>
<path d="M16387 42740 c-270 -34 -430 -102 -574 -244 -110 -109 -111 -113 -89
-366 28 -325 42 -372 125 -412 74 -37 275 -36 711 2 840 72 1383 110 1597 110
155 1 309 15 384 36 69 19 119 67 119 113 0 45 -30 120 -54 133 -25 15 -145
14 -325 -1 -209 -18 -495 -31 -691 -31 -199 0 -359 -11 -498 -35 -161 -27
-579 -63 -952 -81 l-136 -7 -32 70 c-62 134 -37 233 80 322 120 90 235 118
528 128 312 10 416 -10 555 -104 33 -23 78 -48 100 -58 47 -19 112 -22 128 -6
34 34 -14 151 -98 236 -83 82 -225 144 -415 180 -99 19 -365 28 -463 15z"/>
<path d="M48361 42606 c-45 -16 -95 -75 -136 -161 -68 -141 -72 -236 -16 -350
65 -131 244 -277 448 -365 48 -20 112 -43 141 -49 106 -22 422 -9 582 25 104
22 212 70 445 198 669 367 843 392 1087 156 91 -87 91 -91 53 -221 -14 -46
-28 -109 -31 -140 -6 -51 -4 -58 14 -68 42 -22 113 28 173 120 45 70 82 186
76 237 -7 65 -62 166 -129 237 -157 168 -374 242 -683 233 -203 -7 -255 -25
-684 -238 -511 -255 -617 -294 -796 -293 -112 0 -195 23 -326 88 -135 68 -189
139 -189 248 0 55 6 75 44 153 57 115 65 155 37 183 -23 23 -59 26 -110 7z"/>
<path d="M17256 41038 c-34 -19 -46 -71 -46 -198 0 -437 188 -1452 370 -2000
119 -357 379 -920 426 -920 49 0 45 207 -12 580 -149 970 -513 2347 -662 2503
-37 39 -54 47 -76 35z"/>
<path d="M49537 41011 c-36 -43 -68 -116 -122 -272 -63 -183 -279 -911 -321
-1084 -69 -283 -192 -944 -260 -1400 -28 -193 -28 -285 0 -314 44 -43 104 44
221 319 155 364 301 777 364 1027 129 514 254 1350 239 1601 -8 135 -63 191
-121 123z"/>
<path d="M48332 38648 c-49 -52 -249 -479 -551 -1183 -195 -451 -254 -622
-305 -880 -69 -349 -71 -576 -9 -882 25 -124 26 -140 15 -205 -7 -39 -44 -150
-82 -247 -143 -366 -166 -523 -71 -490 46 16 157 117 275 248 169 189 299 296
475 396 258 145 549 410 769 703 153 204 322 607 466 1114 69 242 102 388 127
553 29 198 23 275 -20 275 -52 0 -161 -194 -397 -708 -425 -924 -613 -1258
-918 -1637 -167 -208 -289 -309 -362 -303 -51 4 -71 36 -84 127 -37 264 106
824 362 1419 264 615 409 1159 412 1547 1 129 -15 185 -52 185 -10 0 -32 -15
-50 -32z"/>
<path d="M18451 38635 c-28 -37 -35 -82 -27 -192 25 -351 204 -990 414 -1473
188 -433 307 -803 353 -1095 16 -99 16 -326 0 -381 -16 -58 -46 -94 -80 -94
-67 0 -188 110 -365 332 -290 362 -492 714 -856 1498 -290 625 -420 860 -477
860 -42 0 -20 -192 69 -585 120 -535 305 -1043 473 -1300 197 -303 565 -657
820 -791 166 -88 241 -149 502 -412 177 -179 257 -253 270 -250 10 2 24 16 31
31 27 56 -8 192 -152 592 -45 125 -46 190 -10 395 55 308 25 717 -76 1058 -75
251 -484 1183 -733 1667 -72 140 -86 160 -109 163 -18 2 -32 -5 -47 -23z"/>
<path d="M46674 35507 c-65 -45 -157 -165 -378 -497 -441 -663 -628 -1000
-736 -1329 -74 -223 -105 -395 -135 -746 -25 -296 -40 -344 -153 -497 -103
-140 -236 -398 -215 -419 43 -43 590 280 641 378 12 22 12 29 -5 52 -102 137
-132 215 -133 338 0 67 6 98 32 170 68 187 460 915 697 1293 239 381 448 937
454 1209 1 46 -2 75 -9 78 -6 2 -33 -11 -60 -30z"/>
<path d="M20135 35520 c-10 -16 -7 -130 6 -210 46 -291 242 -757 472 -1120
205 -325 328 -542 505 -896 73 -144 147 -280 166 -303 42 -50 51 -88 43 -185
-7 -98 -38 -183 -108 -299 -32 -54 -59 -101 -58 -105 0 -4 41 -41 92 -83 223
-185 510 -334 533 -276 14 38 -71 217 -181 382 -41 61 -83 130 -94 155 -28 65
-47 171 -66 365 -62 649 -181 971 -612 1664 -237 380 -543 822 -614 888 -30
27 -74 39 -84 23z"/>
<path d="M18564 34695 c-13 -33 65 -213 176 -406 233 -408 635 -955 885 -1204
292 -291 722 -558 1023 -635 153 -39 293 -20 300 40 4 35 -27 62 -198 171
-376 239 -608 451 -1027 943 -451 526 -791 877 -1014 1046 -82 61 -133 77
-145 45z"/>
<path d="M48231 34689 c-172 -77 -578 -489 -1191 -1209 -304 -358 -478 -516
-825 -750 -185 -125 -285 -208 -285 -236 0 -51 132 -61 290 -20 365 92 643
262 993 605 252 247 435 472 661 811 261 391 415 668 424 761 5 57 -8 65 -67
38z"/>
<path d="M22253 32813 c-9 -24 14 -170 43 -270 47 -162 137 -326 279 -508 96
-123 156 -187 455 -491 550 -559 850 -933 876 -1092 5 -34 3 -41 -21 -60 -50
-39 -267 -62 -401 -42 -250 38 -720 283 -1187 618 -253 182 -453 315 -543 360
-213 107 -574 240 -719 265 -101 18 -58 -61 140 -258 266 -266 719 -625 1031
-817 465 -286 1040 -431 1391 -349 118 27 196 27 270 0 32 -12 173 -77 313
-144 271 -131 452 -206 538 -226 45 -11 55 -10 68 2 13 14 11 20 -17 60 -18
24 -148 159 -289 299 -142 140 -285 290 -319 333 -78 101 -150 222 -244 417
-140 287 -311 568 -442 725 -127 152 -371 411 -670 711 -410 411 -534 515
-552 467z"/>
<path d="M44525 32785 c-98 -60 -190 -140 -415 -365 -233 -233 -438 -454 -626
-676 -222 -263 -339 -444 -534 -824 -203 -396 -201 -394 -617 -808 -162 -160
-293 -298 -290 -305 7 -21 97 -11 196 23 129 43 270 105 501 217 107 52 223
106 258 119 73 28 159 31 242 9 103 -28 224 -36 359 -25 423 36 818 193 1281
508 445 303 961 777 995 914 16 65 -61 52 -325 -54 -347 -140 -570 -268 -1045
-599 -242 -168 -598 -373 -830 -477 -141 -64 -190 -80 -281 -93 -92 -14 -329
3 -374 26 -62 32 -65 84 -11 189 122 236 474 649 866 1016 398 372 467 461
619 799 105 230 143 371 116 422 -14 25 -17 25 -85 -16z"/>
<path d="M26525 30117 c-88 -64 -177 -202 -220 -338 -43 -136 13 -144 189 -26
160 108 230 132 299 103 54 -22 72 -57 71 -141 -2 -103 -49 -231 -217 -585
-79 -168 -195 -417 -258 -555 -242 -531 -378 -779 -506 -918 -45 -49 -85 -99
-89 -110 -20 -63 291 -233 387 -212 42 9 58 40 76 141 8 48 34 140 58 205 178
479 593 1450 761 1781 60 117 68 128 109 148 62 30 113 15 176 -50 58 -59 88
-136 96 -244 8 -110 23 -146 62 -146 114 0 230 318 166 454 -27 56 -89 92
-396 230 -151 67 -355 164 -454 214 -215 109 -225 111 -310 49z"/>
<path d="M39912 30045 c-55 -21 -131 -65 -201 -120 -88 -67 -215 -200 -246
-256 -24 -45 -27 -59 -22 -110 12 -131 105 -215 190 -170 34 18 44 40 77 167
16 65 38 133 47 152 48 95 159 128 268 78 114 -52 254 -222 318 -385 68 -175
78 -347 48 -831 -42 -674 -51 -857 -51 -1020 0 -140 3 -171 19 -207 26 -55 96
-98 146 -89 109 21 661 296 866 432 41 27 69 53 73 68 15 60 -72 260 -143 330
-32 31 -44 37 -64 32 -35 -8 -81 -49 -108 -94 -77 -129 -317 -284 -465 -299
-44 -5 -54 -2 -72 17 -12 13 -26 48 -33 79 -17 82 -4 378 26 606 14 105 35
260 46 345 41 313 25 576 -46 754 -85 212 -266 425 -424 499 -79 37 -182 46
-249 22z"/>
<path d="M38567 29476 c-88 -30 -199 -107 -254 -176 -93 -118 -133 -248 -133
-434 0 -212 56 -439 160 -651 115 -236 259 -369 435 -406 92 -19 146 1 323
121 91 62 157 100 172 100 34 0 94 -62 117 -120 15 -39 18 -78 17 -280 0 -205
-3 -248 -22 -340 -29 -134 -71 -226 -109 -241 -43 -16 -63 -39 -94 -104 -35
-74 -37 -118 -7 -139 115 -81 374 182 447 455 35 131 44 229 38 432 -10 386
-114 788 -297 1162 -177 360 -380 573 -597 630 -77 20 -116 19 -196 -9z m172
-222 c114 -57 243 -222 350 -445 80 -166 113 -280 115 -389 1 -77 -2 -92 -32
-154 -65 -138 -154 -216 -246 -216 -73 0 -146 40 -236 130 -113 114 -179 240
-236 455 -60 227 -71 394 -30 481 27 58 78 119 121 146 46 27 129 24 194 -8z"/>
<path d="M28505 29306 c-51 -31 -64 -49 -280 -401 -197 -320 -269 -429 -491
-740 -83 -115 -199 -278 -258 -362 -139 -196 -287 -381 -413 -514 -158 -168
-177 -236 -86 -305 80 -61 221 -101 283 -81 49 16 68 61 80 185 15 165 97 341
213 460 74 76 109 92 205 92 145 0 288 -56 382 -150 81 -80 95 -115 94 -230
-2 -152 -39 -269 -131 -417 -36 -58 -48 -87 -51 -128 -4 -47 -1 -55 28 -88 52
-60 210 -127 300 -127 51 0 102 29 113 65 5 17 12 194 17 395 11 473 44 888
135 1707 25 221 45 449 45 506 0 99 -1 106 -26 131 -36 35 -102 36 -159 2z
m-151 -658 c19 -27 21 -163 6 -338 -36 -396 -108 -550 -257 -550 -88 0 -212
70 -248 141 -8 15 -15 45 -15 66 0 44 50 163 103 247 43 65 107 188 107 203 0
35 170 201 243 237 41 20 43 20 61 -6z"/>
<path d="M37237 29060 c-136 -43 -287 -169 -354 -296 -18 -33 -42 -96 -55
-139 -20 -71 -23 -101 -23 -260 1 -199 17 -300 76 -477 98 -293 282 -487 477
-505 81 -8 150 15 250 81 156 104 244 100 305 -13 38 -70 52 -174 38 -297 -27
-249 -109 -443 -259 -607 -92 -102 -115 -162 -82 -216 20 -31 24 -33 61 -28
48 6 124 61 224 162 154 153 249 346 291 589 24 134 15 413 -20 608 -125 720
-424 1291 -732 1399 -66 24 -122 23 -197 -1z m172 -221 c99 -50 180 -170 275
-409 138 -350 138 -572 0 -714 -98 -100 -255 -114 -374 -31 -207 143 -344 783
-224 1045 31 68 58 97 109 121 63 29 140 25 214 -12z"/>
<path d="M29890 28924 c-30 -8 -86 -35 -125 -59 -331 -207 -566 -608 -730
-1249 -122 -475 -119 -849 8 -1091 72 -137 225 -252 396 -296 78 -21 317 -38
519 -39 97 0 104 1 126 25 27 29 44 86 86 290 45 219 85 372 136 525 53 158
63 220 41 271 -27 65 -104 81 -299 62 l-68 -6 0 -169 c0 -286 -27 -446 -99
-593 -45 -91 -99 -151 -185 -207 -81 -52 -112 -51 -201 9 -141 94 -220 205
-251 353 -23 108 -14 348 21 548 121 702 393 1296 652 1423 65 32 170 33 229
2 59 -32 121 -105 183 -219 63 -115 86 -144 116 -144 28 0 70 46 85 94 17 52
8 187 -16 248 -47 118 -125 179 -280 218 -94 24 -262 26 -344 4z"/>
<path d="M31013 28740 c-36 -15 -44 -45 -54 -208 -10 -182 -45 -466 -95 -783
-128 -814 -148 -975 -149 -1174 0 -182 12 -241 72 -365 67 -138 197 -240 364
-286 49 -14 102 -18 224 -19 152 0 163 1 215 26 104 50 247 203 313 335 95
190 128 400 182 1159 39 543 72 815 115 939 11 33 20 85 20 117 0 47 -5 63
-26 88 -33 40 -115 66 -175 57 -58 -9 -79 -26 -89 -73 -11 -47 -27 -298 -35
-538 -17 -503 -92 -1213 -159 -1506 -44 -194 -134 -327 -263 -391 -169 -83
-363 -3 -452 186 -41 86 -51 147 -51 304 0 166 14 291 85 752 30 195 66 443
80 550 34 263 58 375 110 527 54 154 59 215 20 261 -15 18 -41 34 -69 41 -52
13 -152 14 -183 1z"/>
<path d="M35905 28692 c-50 -23 -121 -94 -195 -193 -63 -84 -97 -157 -106
-223 -8 -53 1 -60 102 -76 84 -14 147 -40 168 -72 23 -34 112 -539 200 -1128
48 -319 59 -437 54 -576 -4 -137 -12 -158 -93 -244 -61 -65 -75 -88 -75 -129
0 -45 45 -54 197 -41 271 23 586 93 628 140 17 19 17 20 -14 49 -18 17 -67 46
-109 66 -85 41 -175 104 -192 135 -26 49 -120 543 -265 1401 -109 641 -144
829 -167 876 -11 23 -20 28 -53 31 -23 1 -57 -6 -80 -16z"/>
<path d="M34029 28600 c-76 -12 -192 -54 -259 -93 -82 -48 -207 -178 -258
-269 -137 -243 -200 -581 -209 -1125 -9 -510 28 -763 145 -988 49 -94 163
-209 257 -257 185 -95 348 -109 493 -43 54 25 95 33 268 54 86 10 149 34 159
60 19 48 25 216 25 640 0 261 -3 478 -7 482 -16 15 -230 22 -277 9 -94 -26
-117 -96 -71 -215 66 -172 68 -186 69 -390 1 -170 -1 -197 -21 -261 -31 -98
-76 -162 -143 -202 -51 -31 -60 -33 -125 -30 -95 5 -153 34 -240 122 -123 124
-184 275 -225 556 -63 444 -51 929 32 1295 26 111 55 179 113 261 100 140 185
204 271 204 76 0 127 -32 264 -166 69 -67 135 -127 148 -133 53 -28 82 14 82
118 0 116 -50 245 -117 300 -71 59 -243 92 -374 71z"/>
<path d="M32750 28583 c-54 -9 -88 -25 -115 -53 -37 -38 -44 -110 -20 -195 32
-116 30 -329 -9 -975 -48 -795 -83 -1168 -121 -1310 -33 -122 -11 -195 70
-231 90 -40 231 -34 254 10 16 29 37 560 51 1316 15 774 31 1054 71 1204 40
154 21 208 -80 230 -53 11 -57 11 -101 4z"/>
<path d="M20305 23154 c-267 -27 -388 -48 -564 -99 -552 -159 -968 -531 -1184
-1060 -90 -219 -149 -454 -184 -735 -17 -137 -18 -297 -18 -2855 0 -2872 -1
-2788 46 -3063 154 -896 668 -1463 1489 -1646 218 -48 343 -60 640 -60 297 0
418 11 640 60 913 201 1437 868 1529 1949 6 68 11 432 11 843 l0 722 -690 0
-690 0 0 -715 c0 -754 -4 -839 -45 -1003 -38 -147 -85 -233 -179 -327 -137
-137 -281 -188 -531 -189 -170 0 -263 18 -385 76 -192 92 -304 265 -357 548
-17 89 -18 253 -18 2795 0 2542 1 2706 18 2795 64 344 220 537 494 612 113 31
373 31 486 0 299 -82 463 -307 506 -695 7 -57 11 -321 11 -647 l0 -550 690 0
690 0 0 558 c0 548 -6 694 -36 902 -66 461 -242 871 -496 1158 -293 331 -708
534 -1238 607 -109 15 -544 28 -635 19z"/>
<path d="M29810 23150 c-762 -73 -1290 -394 -1594 -971 -153 -291 -241 -624
-277 -1046 -17 -206 -7 -630 19 -798 83 -537 268 -972 603 -1418 202 -269 441
-522 869 -916 550 -507 708 -666 884 -886 223 -280 372 -579 436 -880 28 -129
38 -438 20 -582 -37 -293 -157 -496 -352 -594 -117 -59 -194 -74 -393 -74
-206 0 -259 10 -392 75 -154 76 -266 229 -318 435 -37 146 -45 259 -45 665 l0
380 -690 0 -690 0 0 -387 c0 -387 7 -535 36 -733 79 -547 307 -1011 640 -1302
285 -250 644 -400 1104 -465 175 -24 623 -24 800 1 702 97 1190 411 1488 956
129 237 225 565 269 920 21 177 25 661 5 810 -71 545 -215 936 -503 1370 -237
356 -467 604 -1109 1196 -689 635 -942 944 -1105 1349 -174 431 -165 1012 21
1302 123 192 350 287 644 269 377 -22 564 -196 651 -606 7 -31 15 -194 18
-375 l6 -320 690 0 690 0 -1 275 c-3 500 -63 858 -199 1193 -265 649 -766
1024 -1520 1137 -160 24 -545 35 -705 20z"/>
<path d="M47390 23150 c-762 -73 -1290 -394 -1594 -971 -153 -291 -241 -624
-277 -1046 -17 -206 -7 -630 19 -798 83 -537 268 -972 603 -1418 202 -269 441
-522 869 -916 550 -507 708 -666 884 -886 223 -280 372 -579 436 -880 28 -129
38 -438 20 -582 -37 -293 -157 -496 -352 -594 -117 -59 -194 -74 -393 -74
-206 0 -259 10 -392 75 -154 76 -266 229 -318 435 -37 146 -45 259 -45 665 l0
380 -690 0 -690 0 0 -387 c0 -387 7 -535 36 -733 79 -547 307 -1011 640 -1302
285 -250 644 -400 1104 -465 175 -24 623 -24 800 1 702 97 1190 411 1488 956
129 237 225 565 269 920 21 177 25 661 5 810 -71 545 -215 936 -503 1370 -237
356 -467 604 -1109 1196 -689 635 -942 944 -1105 1349 -174 431 -165 1012 21
1302 123 192 350 287 644 269 377 -22 564 -196 651 -606 7 -31 15 -194 18
-375 l6 -320 690 0 690 0 -1 275 c-3 500 -63 858 -199 1193 -265 649 -766
1024 -1520 1137 -160 24 -545 35 -705 20z"/>
<path d="M23600 18395 l0 -4655 1935 0 1935 0 0 665 0 665 -1205 0 -1205 0 0
3990 0 3990 -730 0 -730 0 0 -4655z"/>
<path d="M34196 23023 c-3 -16 -337 -2096 -741 -4623 -404 -2527 -737 -4610
-740 -4628 l-6 -32 673 2 672 3 126 840 125 840 897 3 896 2 6 -27 c8 -39 246
-1637 246 -1651 0 -9 184 -12 741 -12 l741 0 -6 28 c-3 15 -336 2097 -741
4627 -404 2530 -738 4612 -741 4628 l-6 27 -1068 0 -1068 0 -6 -27z m1359
-4016 c190 -1269 345 -2309 345 -2312 0 -3 -317 -5 -705 -5 l-705 0 5 23 c6
26 695 4632 696 4656 3 45 45 -228 364 -2362z"/>
<path d="M38490 18395 l0 -4655 640 0 640 0 2 3267 3 3266 540 -3264 541
-3264 691 -3 691 -2 5 22 c3 13 229 1507 503 3321 l499 3298 3 -3321 2 -3320
690 0 690 0 0 4655 0 4655 -1014 0 c-958 0 -1015 -1 -1019 -17 -3 -10 -227
-1491 -498 -3290 -271 -1800 -496 -3269 -499 -3265 -4 4 -247 1484 -541 3290
l-534 3282 -1017 0 -1018 0 0 -4655z"/>
</g>
</svg>
